<svg width="516" height="193" viewBox="0 0 516 193" fill="none" xmlns="http://www.w3.org/2000/svg">
<line x1="47.5" y1="169.5" x2="515.5" y2="169.5" stroke="#A1A1AA" stroke-linecap="round"/>
<line x1="47.5" y1="132.5" x2="515.5" y2="132.5" stroke="#A1A1AA" stroke-linecap="round"/>
<line x1="45.5" y1="101.5" x2="513.5" y2="101.5" stroke="#A1A1AA" stroke-linecap="round"/>
<line x1="45.5" y1="70.5" x2="513.5" y2="70.5" stroke="#A1A1AA" stroke-linecap="round"/>
<line x1="45.5" y1="39.5" x2="513.5" y2="39.5" stroke="#A1A1AA" stroke-linecap="round"/>
<line x1="45.5" y1="8.5" x2="513.5" y2="8.5" stroke="#A1A1AA" stroke-linecap="round"/>
<path d="M53 82C53 80.8954 53.8954 80 55 80H59C60.1046 80 61 80.8954 61 82V170H53V82Z" fill="#004BAE"/>
<path d="M61 142C61 140.895 61.8954 140 63 140H67C68.1046 140 69 140.895 69 142V170H61V142Z" fill="#3AB7FE"/>
<path d="M93 113C93 111.895 93.8954 111 95 111H99C100.105 111 101 111.895 101 113V170H93V113Z" fill="#004BAE"/>
<path d="M101 42C101 40.8954 101.895 40 103 40H107C108.105 40 109 40.8954 109 42V170H101V42Z" fill="#3AB7FE"/>
<path d="M133 62C133 60.8954 133.895 60 135 60H139C140.105 60 141 60.8954 141 62V170H133V62Z" fill="#004BAE"/>
<path d="M141 115C141 113.895 141.895 113 143 113H147C148.105 113 149 113.895 149 115V170H141V115Z" fill="#3AB7FE"/>
<path d="M173 86C173 84.8954 173.895 84 175 84H179C180.105 84 181 84.8954 181 86V170H173V86Z" fill="#004BAE"/>
<path d="M181 68C181 66.8954 181.895 66 183 66H187C188.105 66 189 66.8954 189 68V170H181V68Z" fill="#3AB7FE"/>
<path d="M213 82C213 80.8954 213.895 80 215 80H219C220.105 80 221 80.8954 221 82V170H213V82Z" fill="#004BAE"/>
<path d="M221 106C221 104.895 221.895 104 223 104H227C228.105 104 229 104.895 229 106V170H221V106Z" fill="#3AB7FE"/>
<path d="M253 58C253 56.8954 253.895 56 255 56H259C260.105 56 261 56.8954 261 58V170H253V58Z" fill="#004BAE"/>
<path d="M261 24C261 22.8954 261.895 22 263 22H267C268.105 22 269 22.8954 269 24V170H261V24Z" fill="#3AB7FE"/>
<path d="M293 91C293 89.8954 293.895 89 295 89H299C300.105 89 301 89.8954 301 91V170H293V91Z" fill="#004BAE"/>
<path d="M301 51C301 49.8954 301.895 49 303 49H307C308.105 49 309 49.8954 309 51V170H301V51Z" fill="#3AB7FE"/>
<path d="M333 61C333 59.8954 333.895 59 335 59H339C340.105 59 341 59.8954 341 61V170H333V61Z" fill="#004BAE"/>
<path d="M341 80C341 78.8954 341.895 78 343 78H347C348.105 78 349 78.8954 349 80V170H341V80Z" fill="#3AB7FE"/>
<path d="M373 114C373 112.895 373.895 112 375 112H379C380.105 112 381 112.895 381 114V170H373V114Z" fill="#004BAE"/>
<path d="M381 55C381 53.8954 381.895 53 383 53H387C388.105 53 389 53.8954 389 55V170H381V55Z" fill="#3AB7FE"/>
<path d="M413 78C413 76.8954 413.895 76 415 76H419C420.105 76 421 76.8954 421 78V170H413V78Z" fill="#004BAE"/>
<path d="M421 100C421 98.8954 421.895 98 423 98H427C428.105 98 429 98.8954 429 100V170H421V100Z" fill="#3AB7FE"/>
<path d="M51.72 189.16C51.176 189.16 50.6587 189.096 50.168 188.968C49.688 188.829 49.256 188.621 48.872 188.344C48.4987 188.056 48.2 187.699 47.976 187.272C47.752 186.845 47.6293 186.344 47.608 185.768C47.608 185.672 47.64 185.592 47.704 185.528C47.768 185.453 47.8533 185.416 47.96 185.416H48.824C48.9413 185.416 49.032 185.453 49.096 185.528C49.1707 185.592 49.2187 185.677 49.24 185.784C49.2827 186.264 49.4213 186.653 49.656 186.952C49.8907 187.24 50.1893 187.453 50.552 187.592C50.9147 187.731 51.3147 187.8 51.752 187.8C52.5627 187.8 53.1813 187.533 53.608 187C54.0347 186.467 54.248 185.757 54.248 184.872V179.192H48.568C48.4613 179.192 48.3707 179.16 48.296 179.096C48.232 179.021 48.2 178.931 48.2 178.824V178.168C48.2 178.061 48.232 177.976 48.296 177.912C48.3707 177.837 48.4613 177.8 48.568 177.8H55.464C55.5813 177.8 55.672 177.837 55.736 177.912C55.8107 177.976 55.848 178.067 55.848 178.184V184.904C55.848 185.768 55.6827 186.52 55.352 187.16C55.0213 187.8 54.552 188.296 53.944 188.648C53.336 188.989 52.5947 189.16 51.72 189.16ZM60.5821 189.16C60.0488 189.16 59.5635 189.053 59.1261 188.84C58.6888 188.627 58.3368 188.339 58.0701 187.976C57.8035 187.613 57.6701 187.203 57.6701 186.744C57.6701 186.008 57.9688 185.421 58.5661 184.984C59.1635 184.547 59.9421 184.259 60.9021 184.12L63.2861 183.784V183.32C63.2861 182.808 63.1368 182.408 62.8381 182.12C62.5501 181.832 62.0755 181.688 61.4141 181.688C60.9341 181.688 60.5448 181.784 60.2461 181.976C59.9581 182.168 59.7555 182.413 59.6381 182.712C59.5741 182.872 59.4621 182.952 59.3021 182.952H58.5821C58.4648 182.952 58.3741 182.92 58.3101 182.856C58.2568 182.781 58.2301 182.696 58.2301 182.6C58.2301 182.44 58.2888 182.243 58.4061 182.008C58.5341 181.773 58.7261 181.544 58.9821 181.32C59.2381 181.096 59.5635 180.909 59.9581 180.76C60.3635 180.6 60.8541 180.52 61.4301 180.52C62.0701 180.52 62.6088 180.605 63.0461 180.776C63.4835 180.936 63.8248 181.155 64.0701 181.432C64.3261 181.709 64.5075 182.024 64.6141 182.376C64.7315 182.728 64.7901 183.085 64.7901 183.448V188.632C64.7901 188.739 64.7528 188.829 64.6781 188.904C64.6141 188.968 64.5288 189 64.4221 189H63.6861C63.5688 189 63.4781 188.968 63.4141 188.904C63.3501 188.829 63.3181 188.739 63.3181 188.632V187.944C63.1795 188.136 62.9928 188.328 62.7581 188.52C62.5235 188.701 62.2301 188.856 61.8781 188.984C61.5261 189.101 61.0941 189.16 60.5821 189.16ZM60.9181 187.96C61.3555 187.96 61.7555 187.869 62.1181 187.688C62.4808 187.496 62.7635 187.203 62.9661 186.808C63.1795 186.413 63.2861 185.917 63.2861 185.32V184.872L61.4301 185.144C60.6728 185.251 60.1021 185.432 59.7181 185.688C59.3341 185.933 59.1421 186.248 59.1421 186.632C59.1421 186.931 59.2275 187.181 59.3981 187.384C59.5795 187.576 59.8035 187.72 60.0701 187.816C60.3475 187.912 60.6301 187.96 60.9181 187.96ZM67.4583 189C67.3516 189 67.2609 188.968 67.1863 188.904C67.1223 188.829 67.0903 188.739 67.0903 188.632V181.048C67.0903 180.941 67.1223 180.856 67.1863 180.792C67.2609 180.717 67.3516 180.68 67.4583 180.68H68.2103C68.3169 180.68 68.4023 180.717 68.4663 180.792C68.5409 180.856 68.5783 180.941 68.5783 181.048V181.752C68.8556 181.389 69.2023 181.096 69.6183 180.872C70.0449 180.637 70.5889 180.52 71.2503 180.52C71.9436 180.52 72.5303 180.675 73.0103 180.984C73.5009 181.283 73.8689 181.704 74.1143 182.248C74.3596 182.781 74.4823 183.405 74.4823 184.12V188.632C74.4823 188.739 74.4503 188.829 74.3863 188.904C74.3223 188.968 74.2369 189 74.1302 189H73.3303C73.2236 189 73.1329 188.968 73.0583 188.904C72.9943 188.829 72.9623 188.739 72.9623 188.632V184.2C72.9623 183.453 72.7809 182.872 72.4183 182.456C72.0556 182.029 71.5223 181.816 70.8183 181.816C70.1569 181.816 69.6236 182.029 69.2183 182.456C68.8236 182.872 68.6263 183.453 68.6263 184.2V188.632C68.6263 188.739 68.5889 188.829 68.5143 188.904C68.4503 188.968 68.3649 189 68.2582 189H67.4583Z" fill="black"/>
<path d="M88.76 189C88.6427 189 88.552 188.968 88.488 188.904C88.424 188.829 88.392 188.739 88.392 188.632V178.184C88.392 178.067 88.424 177.976 88.488 177.912C88.552 177.837 88.6427 177.8 88.76 177.8H95.288C95.4053 177.8 95.496 177.837 95.56 177.912C95.624 177.976 95.656 178.067 95.656 178.184V178.824C95.656 178.941 95.624 179.032 95.56 179.096C95.496 179.16 95.4053 179.192 95.288 179.192H89.944V182.92H94.968C95.0853 182.92 95.176 182.957 95.24 183.032C95.304 183.096 95.336 183.187 95.336 183.304V183.944C95.336 184.051 95.304 184.141 95.24 184.216C95.176 184.28 95.0853 184.312 94.968 184.312H89.944V188.632C89.944 188.739 89.9067 188.829 89.832 188.904C89.768 188.968 89.6773 189 89.56 189H88.76ZM100.668 189.16C99.5692 189.16 98.6945 188.824 98.0439 188.152C97.3932 187.469 97.0359 186.541 96.9719 185.368C96.9612 185.229 96.9559 185.053 96.9559 184.84C96.9559 184.616 96.9612 184.435 96.9719 184.296C97.0145 183.539 97.1905 182.877 97.4999 182.312C97.8092 181.736 98.2305 181.293 98.7639 180.984C99.3079 180.675 99.9425 180.52 100.668 180.52C101.479 180.52 102.156 180.691 102.7 181.032C103.255 181.373 103.676 181.859 103.964 182.488C104.252 183.117 104.396 183.853 104.396 184.696V184.968C104.396 185.085 104.359 185.176 104.284 185.24C104.22 185.304 104.135 185.336 104.028 185.336H98.4919C98.4919 185.347 98.4919 185.368 98.4919 185.4C98.4919 185.432 98.4919 185.459 98.4919 185.48C98.5132 185.917 98.6092 186.328 98.7799 186.712C98.9505 187.085 99.1959 187.389 99.5159 187.624C99.8359 187.859 100.22 187.976 100.668 187.976C101.052 187.976 101.372 187.917 101.628 187.8C101.884 187.683 102.092 187.555 102.252 187.416C102.412 187.267 102.519 187.155 102.572 187.08C102.668 186.941 102.743 186.861 102.796 186.84C102.849 186.808 102.935 186.792 103.052 186.792H103.82C103.927 186.792 104.012 186.824 104.076 186.888C104.151 186.941 104.183 187.021 104.172 187.128C104.161 187.288 104.076 187.485 103.916 187.72C103.756 187.944 103.527 188.168 103.228 188.392C102.929 188.616 102.567 188.803 102.14 188.952C101.713 189.091 101.223 189.16 100.668 189.16ZM98.4919 184.232H102.876V184.184C102.876 183.704 102.785 183.277 102.604 182.904C102.433 182.531 102.183 182.237 101.852 182.024C101.521 181.8 101.127 181.688 100.668 181.688C100.209 181.688 99.8145 181.8 99.4839 182.024C99.1639 182.237 98.9185 182.531 98.7479 182.904C98.5772 183.277 98.4919 183.704 98.4919 184.184V184.232ZM110.421 189.16C109.781 189.16 109.248 189.048 108.821 188.824C108.394 188.589 108.053 188.301 107.797 187.96V188.632C107.797 188.739 107.76 188.829 107.685 188.904C107.621 188.968 107.536 189 107.429 189H106.693C106.586 189 106.496 188.968 106.421 188.904C106.357 188.829 106.325 188.739 106.325 188.632V178.008C106.325 177.901 106.357 177.816 106.421 177.752C106.496 177.677 106.586 177.64 106.693 177.64H107.461C107.578 177.64 107.669 177.677 107.733 177.752C107.797 177.816 107.829 177.901 107.829 178.008V181.688C108.096 181.357 108.437 181.08 108.853 180.856C109.28 180.632 109.802 180.52 110.421 180.52C111.018 180.52 111.525 180.627 111.941 180.84C112.368 181.043 112.714 181.325 112.981 181.688C113.258 182.051 113.466 182.461 113.605 182.92C113.744 183.379 113.818 183.859 113.829 184.36C113.84 184.531 113.845 184.691 113.845 184.84C113.845 184.989 113.84 185.149 113.829 185.32C113.818 185.832 113.744 186.317 113.605 186.776C113.466 187.235 113.258 187.645 112.981 188.008C112.714 188.36 112.368 188.643 111.941 188.856C111.525 189.059 111.018 189.16 110.421 189.16ZM110.085 187.864C110.64 187.864 111.072 187.747 111.381 187.512C111.701 187.267 111.93 186.952 112.069 186.568C112.208 186.173 112.288 185.752 112.309 185.304C112.32 184.995 112.32 184.685 112.309 184.376C112.288 183.928 112.208 183.512 112.069 183.128C111.93 182.733 111.701 182.419 111.381 182.184C111.072 181.939 110.64 181.816 110.085 181.816C109.584 181.816 109.168 181.933 108.837 182.168C108.506 182.403 108.256 182.701 108.085 183.064C107.925 183.427 107.84 183.795 107.829 184.168C107.818 184.339 107.813 184.547 107.813 184.792C107.813 185.027 107.818 185.229 107.829 185.4C107.85 185.795 107.936 186.184 108.085 186.568C108.245 186.941 108.485 187.251 108.805 187.496C109.136 187.741 109.562 187.864 110.085 187.864Z" fill="black"/>
<path d="M128.76 189C128.653 189 128.563 188.968 128.488 188.904C128.424 188.829 128.392 188.739 128.392 188.632V178.184C128.392 178.067 128.424 177.976 128.488 177.912C128.563 177.837 128.653 177.8 128.76 177.8H129.56C129.688 177.8 129.784 177.832 129.848 177.896C129.912 177.96 129.949 178.013 129.96 178.056L133.352 184.52L136.76 178.056C136.781 178.013 136.819 177.96 136.872 177.896C136.936 177.832 137.032 177.8 137.16 177.8H137.944C138.061 177.8 138.152 177.837 138.216 177.912C138.291 177.976 138.328 178.067 138.328 178.184V188.632C138.328 188.739 138.291 188.829 138.216 188.904C138.152 188.968 138.061 189 137.944 189H137.16C137.053 189 136.963 188.968 136.888 188.904C136.824 188.829 136.792 188.739 136.792 188.632V180.76L134.12 185.976C134.077 186.083 134.013 186.168 133.928 186.232C133.843 186.285 133.736 186.312 133.608 186.312H133.112C132.973 186.312 132.861 186.285 132.776 186.232C132.701 186.168 132.637 186.083 132.584 185.976L129.912 180.76V188.632C129.912 188.739 129.875 188.829 129.8 188.904C129.736 188.968 129.651 189 129.544 189H128.76ZM143.207 189.16C142.674 189.16 142.188 189.053 141.751 188.84C141.314 188.627 140.962 188.339 140.695 187.976C140.428 187.613 140.295 187.203 140.295 186.744C140.295 186.008 140.594 185.421 141.191 184.984C141.788 184.547 142.567 184.259 143.527 184.12L145.911 183.784V183.32C145.911 182.808 145.762 182.408 145.463 182.12C145.175 181.832 144.7 181.688 144.039 181.688C143.559 181.688 143.17 181.784 142.871 181.976C142.583 182.168 142.38 182.413 142.263 182.712C142.199 182.872 142.087 182.952 141.927 182.952H141.207C141.09 182.952 140.999 182.92 140.935 182.856C140.882 182.781 140.855 182.696 140.855 182.6C140.855 182.44 140.914 182.243 141.031 182.008C141.159 181.773 141.351 181.544 141.607 181.32C141.863 181.096 142.188 180.909 142.583 180.76C142.988 180.6 143.479 180.52 144.055 180.52C144.695 180.52 145.234 180.605 145.671 180.776C146.108 180.936 146.45 181.155 146.695 181.432C146.951 181.709 147.132 182.024 147.239 182.376C147.356 182.728 147.415 183.085 147.415 183.448V188.632C147.415 188.739 147.378 188.829 147.303 188.904C147.239 188.968 147.154 189 147.047 189H146.311C146.194 189 146.103 188.968 146.039 188.904C145.975 188.829 145.943 188.739 145.943 188.632V187.944C145.804 188.136 145.618 188.328 145.383 188.52C145.148 188.701 144.855 188.856 144.503 188.984C144.151 189.101 143.719 189.16 143.207 189.16ZM143.543 187.96C143.98 187.96 144.38 187.869 144.743 187.688C145.106 187.496 145.388 187.203 145.591 186.808C145.804 186.413 145.911 185.917 145.911 185.32V184.872L144.055 185.144C143.298 185.251 142.727 185.432 142.343 185.688C141.959 185.933 141.767 186.248 141.767 186.632C141.767 186.931 141.852 187.181 142.023 187.384C142.204 187.576 142.428 187.72 142.695 187.816C142.972 187.912 143.255 187.96 143.543 187.96ZM150.083 189C149.977 189 149.886 188.968 149.811 188.904C149.747 188.829 149.715 188.739 149.715 188.632V181.064C149.715 180.957 149.747 180.867 149.811 180.792C149.886 180.717 149.977 180.68 150.083 180.68H150.819C150.926 180.68 151.017 180.717 151.091 180.792C151.166 180.867 151.203 180.957 151.203 181.064V181.768C151.417 181.405 151.71 181.133 152.083 180.952C152.457 180.771 152.905 180.68 153.427 180.68H154.067C154.174 180.68 154.259 180.717 154.323 180.792C154.387 180.856 154.419 180.941 154.419 181.048V181.704C154.419 181.811 154.387 181.896 154.323 181.96C154.259 182.024 154.174 182.056 154.067 182.056H153.107C152.531 182.056 152.078 182.227 151.747 182.568C151.417 182.899 151.251 183.352 151.251 183.928V188.632C151.251 188.739 151.214 188.829 151.139 188.904C151.065 188.968 150.974 189 150.867 189H150.083Z" fill="black"/>
<path d="M168.64 189C168.555 189 168.48 188.968 168.416 188.904C168.352 188.84 168.32 188.765 168.32 188.68C168.32 188.627 168.325 188.568 168.336 188.504L172.304 178.152C172.347 178.045 172.405 177.96 172.48 177.896C172.555 177.832 172.667 177.8 172.816 177.8H173.904C174.043 177.8 174.149 177.832 174.224 177.896C174.309 177.96 174.373 178.045 174.416 178.152L178.368 188.504C178.389 188.568 178.4 188.627 178.4 188.68C178.4 188.765 178.368 188.84 178.304 188.904C178.24 188.968 178.165 189 178.08 189H177.264C177.136 189 177.04 188.968 176.976 188.904C176.923 188.84 176.885 188.781 176.864 188.728L175.984 186.456H170.736L169.856 188.728C169.845 188.781 169.808 188.84 169.744 188.904C169.68 188.968 169.584 189 169.456 189H168.64ZM171.2 185.08H175.52L173.36 179.4L171.2 185.08ZM180.287 192.04C180.18 192.04 180.089 192.003 180.015 191.928C179.951 191.864 179.919 191.779 179.919 191.672V181.048C179.919 180.941 179.951 180.856 180.015 180.792C180.089 180.717 180.18 180.68 180.287 180.68H181.023C181.129 180.68 181.215 180.717 181.279 180.792C181.353 180.856 181.391 180.941 181.391 181.048V181.752C181.647 181.4 181.988 181.107 182.415 180.872C182.841 180.637 183.375 180.52 184.015 180.52C184.612 180.52 185.119 180.621 185.535 180.824C185.961 181.027 186.308 181.304 186.575 181.656C186.852 182.008 187.06 182.408 187.199 182.856C187.337 183.304 187.412 183.784 187.423 184.296C187.433 184.467 187.439 184.648 187.439 184.84C187.439 185.032 187.433 185.213 187.423 185.384C187.412 185.885 187.337 186.365 187.199 186.824C187.06 187.272 186.852 187.672 186.575 188.024C186.308 188.365 185.961 188.643 185.535 188.856C185.119 189.059 184.612 189.16 184.015 189.16C183.396 189.16 182.873 189.048 182.447 188.824C182.031 188.589 181.689 188.301 181.423 187.96V191.672C181.423 191.779 181.391 191.864 181.327 191.928C181.263 192.003 181.172 192.04 181.055 192.04H180.287ZM183.679 187.864C184.233 187.864 184.665 187.747 184.975 187.512C185.295 187.267 185.524 186.952 185.663 186.568C185.801 186.173 185.881 185.752 185.903 185.304C185.913 184.995 185.913 184.685 185.903 184.376C185.881 183.928 185.801 183.512 185.663 183.128C185.524 182.733 185.295 182.419 184.975 182.184C184.665 181.939 184.233 181.816 183.679 181.816C183.156 181.816 182.729 181.939 182.399 182.184C182.079 182.429 181.839 182.744 181.679 183.128C181.529 183.501 181.444 183.885 181.423 184.28C181.412 184.451 181.407 184.653 181.407 184.888C181.407 185.123 181.412 185.331 181.423 185.512C181.433 185.885 181.519 186.253 181.679 186.616C181.849 186.979 182.1 187.277 182.431 187.512C182.761 187.747 183.177 187.864 183.679 187.864ZM189.802 189C189.695 189 189.605 188.968 189.53 188.904C189.466 188.829 189.434 188.739 189.434 188.632V181.064C189.434 180.957 189.466 180.867 189.53 180.792C189.605 180.717 189.695 180.68 189.802 180.68H190.538C190.645 180.68 190.735 180.717 190.81 180.792C190.885 180.867 190.922 180.957 190.922 181.064V181.768C191.135 181.405 191.429 181.133 191.802 180.952C192.175 180.771 192.623 180.68 193.146 180.68H193.786C193.893 180.68 193.978 180.717 194.042 180.792C194.106 180.856 194.138 180.941 194.138 181.048V181.704C194.138 181.811 194.106 181.896 194.042 181.96C193.978 182.024 193.893 182.056 193.786 182.056H192.826C192.25 182.056 191.797 182.227 191.466 182.568C191.135 182.899 190.97 183.352 190.97 183.928V188.632C190.97 188.739 190.933 188.829 190.858 188.904C190.783 188.968 190.693 189 190.586 189H189.802Z" fill="black"/>
<path d="M209.76 189C209.653 189 209.563 188.968 209.488 188.904C209.424 188.829 209.392 188.739 209.392 188.632V178.184C209.392 178.067 209.424 177.976 209.488 177.912C209.563 177.837 209.653 177.8 209.76 177.8H210.56C210.688 177.8 210.784 177.832 210.848 177.896C210.912 177.96 210.949 178.013 210.96 178.056L214.352 184.52L217.76 178.056C217.781 178.013 217.819 177.96 217.872 177.896C217.936 177.832 218.032 177.8 218.16 177.8H218.944C219.061 177.8 219.152 177.837 219.216 177.912C219.291 177.976 219.328 178.067 219.328 178.184V188.632C219.328 188.739 219.291 188.829 219.216 188.904C219.152 188.968 219.061 189 218.944 189H218.16C218.053 189 217.963 188.968 217.888 188.904C217.824 188.829 217.792 188.739 217.792 188.632V180.76L215.12 185.976C215.077 186.083 215.013 186.168 214.928 186.232C214.843 186.285 214.736 186.312 214.608 186.312H214.112C213.973 186.312 213.861 186.285 213.776 186.232C213.701 186.168 213.637 186.083 213.584 185.976L210.912 180.76V188.632C210.912 188.739 210.875 188.829 210.8 188.904C210.736 188.968 210.651 189 210.544 189H209.76ZM225.199 189.16C224.1 189.16 223.226 188.824 222.575 188.152C221.924 187.469 221.567 186.541 221.503 185.368C221.492 185.229 221.487 185.053 221.487 184.84C221.487 184.616 221.492 184.435 221.503 184.296C221.546 183.539 221.722 182.877 222.031 182.312C222.34 181.736 222.762 181.293 223.295 180.984C223.839 180.675 224.474 180.52 225.199 180.52C226.01 180.52 226.687 180.691 227.231 181.032C227.786 181.373 228.207 181.859 228.495 182.488C228.783 183.117 228.927 183.853 228.927 184.696V184.968C228.927 185.085 228.89 185.176 228.815 185.24C228.751 185.304 228.666 185.336 228.559 185.336H223.023C223.023 185.347 223.023 185.368 223.023 185.4C223.023 185.432 223.023 185.459 223.023 185.48C223.044 185.917 223.14 186.328 223.311 186.712C223.482 187.085 223.727 187.389 224.047 187.624C224.367 187.859 224.751 187.976 225.199 187.976C225.583 187.976 225.903 187.917 226.159 187.8C226.415 187.683 226.623 187.555 226.783 187.416C226.943 187.267 227.05 187.155 227.103 187.08C227.199 186.941 227.274 186.861 227.327 186.84C227.38 186.808 227.466 186.792 227.583 186.792H228.351C228.458 186.792 228.543 186.824 228.607 186.888C228.682 186.941 228.714 187.021 228.703 187.128C228.692 187.288 228.607 187.485 228.447 187.72C228.287 187.944 228.058 188.168 227.759 188.392C227.46 188.616 227.098 188.803 226.671 188.952C226.244 189.091 225.754 189.16 225.199 189.16ZM223.023 184.232H227.407V184.184C227.407 183.704 227.316 183.277 227.135 182.904C226.964 182.531 226.714 182.237 226.383 182.024C226.052 181.8 225.658 181.688 225.199 181.688C224.74 181.688 224.346 181.8 224.015 182.024C223.695 182.237 223.45 182.531 223.279 182.904C223.108 183.277 223.023 183.704 223.023 184.184V184.232ZM231.208 189C231.102 189 231.011 188.968 230.936 188.904C230.872 188.829 230.84 188.739 230.84 188.632V181.048C230.84 180.941 230.872 180.856 230.936 180.792C231.011 180.717 231.102 180.68 231.208 180.68H231.976C232.083 180.68 232.168 180.717 232.232 180.792C232.296 180.856 232.328 180.941 232.328 181.048V188.632C232.328 188.739 232.296 188.829 232.232 188.904C232.168 188.968 232.083 189 231.976 189H231.208ZM231.08 179.128C230.974 179.128 230.883 179.096 230.808 179.032C230.744 178.957 230.712 178.867 230.712 178.76V177.896C230.712 177.789 230.744 177.704 230.808 177.64C230.883 177.565 230.974 177.528 231.08 177.528H232.088C232.195 177.528 232.28 177.565 232.344 177.64C232.419 177.704 232.456 177.789 232.456 177.896V178.76C232.456 178.867 232.419 178.957 232.344 179.032C232.28 179.096 232.195 179.128 232.088 179.128H231.08Z" fill="black"/>
<path d="M250.72 189.16C250.176 189.16 249.659 189.096 249.168 188.968C248.688 188.829 248.256 188.621 247.872 188.344C247.499 188.056 247.2 187.699 246.976 187.272C246.752 186.845 246.629 186.344 246.608 185.768C246.608 185.672 246.64 185.592 246.704 185.528C246.768 185.453 246.853 185.416 246.96 185.416H247.824C247.941 185.416 248.032 185.453 248.096 185.528C248.171 185.592 248.219 185.677 248.24 185.784C248.283 186.264 248.421 186.653 248.656 186.952C248.891 187.24 249.189 187.453 249.552 187.592C249.915 187.731 250.315 187.8 250.752 187.8C251.563 187.8 252.181 187.533 252.608 187C253.035 186.467 253.248 185.757 253.248 184.872V179.192H247.568C247.461 179.192 247.371 179.16 247.296 179.096C247.232 179.021 247.2 178.931 247.2 178.824V178.168C247.2 178.061 247.232 177.976 247.296 177.912C247.371 177.837 247.461 177.8 247.568 177.8H254.464C254.581 177.8 254.672 177.837 254.736 177.912C254.811 177.976 254.848 178.067 254.848 178.184V184.904C254.848 185.768 254.683 186.52 254.352 187.16C254.021 187.8 253.552 188.296 252.944 188.648C252.336 188.989 251.595 189.16 250.72 189.16ZM260.366 189.16C259.683 189.16 259.102 189.011 258.622 188.712C258.153 188.403 257.795 187.976 257.55 187.432C257.305 186.888 257.182 186.264 257.182 185.56V181.048C257.182 180.941 257.214 180.856 257.278 180.792C257.353 180.717 257.443 180.68 257.55 180.68H258.35C258.457 180.68 258.542 180.717 258.606 180.792C258.681 180.856 258.718 180.941 258.718 181.048V185.48C258.718 187.069 259.411 187.864 260.798 187.864C261.459 187.864 261.987 187.656 262.382 187.24C262.787 186.813 262.99 186.227 262.99 185.48V181.048C262.99 180.941 263.022 180.856 263.086 180.792C263.161 180.717 263.251 180.68 263.358 180.68H264.142C264.259 180.68 264.35 180.717 264.414 180.792C264.478 180.856 264.51 180.941 264.51 181.048V188.632C264.51 188.739 264.478 188.829 264.414 188.904C264.35 188.968 264.259 189 264.142 189H263.406C263.299 189 263.209 188.968 263.134 188.904C263.07 188.829 263.038 188.739 263.038 188.632V187.928C262.75 188.301 262.398 188.6 261.982 188.824C261.577 189.048 261.038 189.16 260.366 189.16ZM267.255 189C267.148 189 267.058 188.968 266.983 188.904C266.919 188.829 266.887 188.739 266.887 188.632V181.048C266.887 180.941 266.919 180.856 266.983 180.792C267.058 180.717 267.148 180.68 267.255 180.68H268.007C268.114 180.68 268.199 180.717 268.263 180.792C268.338 180.856 268.375 180.941 268.375 181.048V181.752C268.652 181.389 268.999 181.096 269.415 180.872C269.842 180.637 270.386 180.52 271.047 180.52C271.74 180.52 272.327 180.675 272.807 180.984C273.298 181.283 273.666 181.704 273.911 182.248C274.156 182.781 274.279 183.405 274.279 184.12V188.632C274.279 188.739 274.247 188.829 274.183 188.904C274.119 188.968 274.034 189 273.927 189H273.127C273.02 189 272.93 188.968 272.855 188.904C272.791 188.829 272.759 188.739 272.759 188.632V184.2C272.759 183.453 272.578 182.872 272.215 182.456C271.852 182.029 271.319 181.816 270.615 181.816C269.954 181.816 269.42 182.029 269.015 182.456C268.62 182.872 268.423 183.453 268.423 184.2V188.632C268.423 188.739 268.386 188.829 268.311 188.904C268.247 188.968 268.162 189 268.055 189H267.255Z" fill="black"/>
<path d="M293.72 189.16C293.176 189.16 292.659 189.096 292.168 188.968C291.688 188.829 291.256 188.621 290.872 188.344C290.499 188.056 290.2 187.699 289.976 187.272C289.752 186.845 289.629 186.344 289.608 185.768C289.608 185.672 289.64 185.592 289.704 185.528C289.768 185.453 289.853 185.416 289.96 185.416H290.824C290.941 185.416 291.032 185.453 291.096 185.528C291.171 185.592 291.219 185.677 291.24 185.784C291.283 186.264 291.421 186.653 291.656 186.952C291.891 187.24 292.189 187.453 292.552 187.592C292.915 187.731 293.315 187.8 293.752 187.8C294.563 187.8 295.181 187.533 295.608 187C296.035 186.467 296.248 185.757 296.248 184.872V179.192H290.568C290.461 179.192 290.371 179.16 290.296 179.096C290.232 179.021 290.2 178.931 290.2 178.824V178.168C290.2 178.061 290.232 177.976 290.296 177.912C290.371 177.837 290.461 177.8 290.568 177.8H297.464C297.581 177.8 297.672 177.837 297.736 177.912C297.811 177.976 297.848 178.067 297.848 178.184V184.904C297.848 185.768 297.683 186.52 297.352 187.16C297.021 187.8 296.552 188.296 295.944 188.648C295.336 188.989 294.595 189.16 293.72 189.16ZM303.366 189.16C302.683 189.16 302.102 189.011 301.622 188.712C301.153 188.403 300.795 187.976 300.55 187.432C300.305 186.888 300.182 186.264 300.182 185.56V181.048C300.182 180.941 300.214 180.856 300.278 180.792C300.353 180.717 300.443 180.68 300.55 180.68H301.35C301.457 180.68 301.542 180.717 301.606 180.792C301.681 180.856 301.718 180.941 301.718 181.048V185.48C301.718 187.069 302.411 187.864 303.798 187.864C304.459 187.864 304.987 187.656 305.382 187.24C305.787 186.813 305.99 186.227 305.99 185.48V181.048C305.99 180.941 306.022 180.856 306.086 180.792C306.161 180.717 306.251 180.68 306.358 180.68H307.142C307.259 180.68 307.35 180.717 307.414 180.792C307.478 180.856 307.51 180.941 307.51 181.048V188.632C307.51 188.739 307.478 188.829 307.414 188.904C307.35 188.968 307.259 189 307.142 189H306.406C306.299 189 306.209 188.968 306.134 188.904C306.07 188.829 306.038 188.739 306.038 188.632V187.928C305.75 188.301 305.398 188.6 304.982 188.824C304.577 189.048 304.038 189.16 303.366 189.16ZM310.271 189C310.164 189 310.074 188.968 309.999 188.904C309.935 188.829 309.903 188.739 309.903 188.632V178.008C309.903 177.901 309.935 177.816 309.999 177.752C310.074 177.677 310.164 177.64 310.271 177.64H311.023C311.14 177.64 311.231 177.677 311.295 177.752C311.359 177.816 311.391 177.901 311.391 178.008V188.632C311.391 188.739 311.359 188.829 311.295 188.904C311.231 188.968 311.14 189 311.023 189H310.271Z" fill="black"/>
<path d="M326.64 189C326.555 189 326.48 188.968 326.416 188.904C326.352 188.84 326.32 188.765 326.32 188.68C326.32 188.627 326.325 188.568 326.336 188.504L330.304 178.152C330.347 178.045 330.405 177.96 330.48 177.896C330.555 177.832 330.667 177.8 330.816 177.8H331.904C332.043 177.8 332.149 177.832 332.224 177.896C332.309 177.96 332.373 178.045 332.416 178.152L336.368 188.504C336.389 188.568 336.4 188.627 336.4 188.68C336.4 188.765 336.368 188.84 336.304 188.904C336.24 188.968 336.165 189 336.08 189H335.264C335.136 189 335.04 188.968 334.976 188.904C334.923 188.84 334.885 188.781 334.864 188.728L333.984 186.456H328.736L327.856 188.728C327.845 188.781 327.808 188.84 327.744 188.904C327.68 188.968 327.584 189 327.456 189H326.64ZM329.2 185.08H333.52L331.36 179.4L329.2 185.08ZM341.217 192.52C340.492 192.52 339.894 192.424 339.425 192.232C338.966 192.04 338.604 191.805 338.337 191.528C338.081 191.261 337.894 190.989 337.777 190.712C337.67 190.445 337.612 190.232 337.601 190.072C337.59 189.965 337.622 189.875 337.697 189.8C337.782 189.725 337.873 189.688 337.969 189.688H338.737C338.833 189.688 338.913 189.709 338.977 189.752C339.041 189.795 339.094 189.885 339.137 190.024C339.201 190.184 339.297 190.36 339.425 190.552C339.553 190.755 339.75 190.925 340.017 191.064C340.284 191.213 340.657 191.288 341.137 191.288C341.638 191.288 342.06 191.219 342.401 191.08C342.742 190.952 342.998 190.717 343.169 190.376C343.35 190.045 343.441 189.587 343.441 189V187.912C343.185 188.243 342.849 188.52 342.433 188.744C342.017 188.957 341.494 189.064 340.865 189.064C340.268 189.064 339.756 188.963 339.329 188.76C338.902 188.547 338.55 188.264 338.273 187.912C338.006 187.549 337.804 187.139 337.665 186.68C337.537 186.221 337.462 185.741 337.441 185.24C337.43 184.941 337.43 184.648 337.441 184.36C337.462 183.859 337.537 183.379 337.665 182.92C337.804 182.461 338.006 182.051 338.273 181.688C338.55 181.325 338.902 181.043 339.329 180.84C339.756 180.627 340.268 180.52 340.865 180.52C341.505 180.52 342.033 180.643 342.449 180.888C342.876 181.123 343.222 181.411 343.489 181.752V181.064C343.489 180.957 343.521 180.867 343.585 180.792C343.66 180.717 343.75 180.68 343.857 180.68H344.593C344.7 180.68 344.79 180.717 344.865 180.792C344.94 180.867 344.977 180.957 344.977 181.064V188.824C344.977 189.539 344.854 190.173 344.609 190.728C344.374 191.283 343.98 191.72 343.425 192.04C342.881 192.36 342.145 192.52 341.217 192.52ZM341.185 187.784C341.718 187.784 342.145 187.661 342.465 187.416C342.796 187.171 343.036 186.861 343.185 186.488C343.345 186.115 343.43 185.736 343.441 185.352C343.452 185.203 343.457 185.021 343.457 184.808C343.457 184.584 343.452 184.397 343.441 184.248C343.43 183.864 343.345 183.485 343.185 183.112C343.036 182.739 342.796 182.429 342.465 182.184C342.145 181.939 341.718 181.816 341.185 181.816C340.652 181.816 340.225 181.939 339.905 182.184C339.585 182.419 339.356 182.733 339.217 183.128C339.078 183.512 338.998 183.928 338.977 184.376C338.966 184.653 338.966 184.936 338.977 185.224C338.998 185.672 339.078 186.093 339.217 186.488C339.356 186.872 339.585 187.187 339.905 187.432C340.225 187.667 340.652 187.784 341.185 187.784ZM350.46 189.16C349.777 189.16 349.196 189.011 348.716 188.712C348.247 188.403 347.889 187.976 347.644 187.432C347.399 186.888 347.276 186.264 347.276 185.56V181.048C347.276 180.941 347.308 180.856 347.372 180.792C347.447 180.717 347.537 180.68 347.644 180.68H348.444C348.551 180.68 348.636 180.717 348.7 180.792C348.775 180.856 348.812 180.941 348.812 181.048V185.48C348.812 187.069 349.505 187.864 350.892 187.864C351.553 187.864 352.081 187.656 352.476 187.24C352.881 186.813 353.084 186.227 353.084 185.48V181.048C353.084 180.941 353.116 180.856 353.18 180.792C353.255 180.717 353.345 180.68 353.452 180.68H354.236C354.353 180.68 354.444 180.717 354.508 180.792C354.572 180.856 354.604 180.941 354.604 181.048V188.632C354.604 188.739 354.572 188.829 354.508 188.904C354.444 188.968 354.353 189 354.236 189H353.5C353.393 189 353.303 188.968 353.228 188.904C353.164 188.829 353.132 188.739 353.132 188.632V187.928C352.844 188.301 352.492 188.6 352.076 188.824C351.671 189.048 351.132 189.16 350.46 189.16Z" fill="black"/>
<path d="M371.992 189.16C371.064 189.16 370.285 189.021 369.656 188.744C369.027 188.456 368.541 188.088 368.2 187.64C367.869 187.181 367.693 186.696 367.672 186.184C367.672 186.099 367.704 186.024 367.768 185.96C367.843 185.885 367.928 185.848 368.024 185.848H368.84C368.968 185.848 369.064 185.88 369.128 185.944C369.192 186.008 369.235 186.083 369.256 186.168C369.309 186.424 369.437 186.68 369.64 186.936C369.853 187.181 370.147 187.389 370.52 187.56C370.904 187.72 371.395 187.8 371.992 187.8C372.909 187.8 373.581 187.64 374.008 187.32C374.445 186.989 374.664 186.552 374.664 186.008C374.664 185.635 374.547 185.336 374.312 185.112C374.088 184.877 373.741 184.669 373.272 184.488C372.803 184.307 372.195 184.109 371.448 183.896C370.669 183.672 370.024 183.427 369.512 183.16C369 182.893 368.616 182.563 368.36 182.168C368.115 181.773 367.992 181.272 367.992 180.664C367.992 180.088 368.147 179.576 368.456 179.128C368.765 178.669 369.208 178.307 369.784 178.04C370.371 177.773 371.08 177.64 371.912 177.64C372.573 177.64 373.149 177.731 373.64 177.912C374.141 178.083 374.557 178.317 374.888 178.616C375.219 178.904 375.469 179.219 375.64 179.56C375.811 179.891 375.901 180.216 375.912 180.536C375.912 180.611 375.885 180.685 375.832 180.76C375.779 180.824 375.693 180.856 375.576 180.856H374.728C374.653 180.856 374.573 180.835 374.488 180.792C374.413 180.749 374.355 180.669 374.312 180.552C374.248 180.115 374.003 179.747 373.576 179.448C373.149 179.149 372.595 179 371.912 179C371.219 179 370.653 179.133 370.216 179.4C369.789 179.667 369.576 180.083 369.576 180.648C369.576 181.011 369.677 181.315 369.88 181.56C370.083 181.795 370.403 182.003 370.84 182.184C371.277 182.365 371.848 182.557 372.552 182.76C373.405 182.995 374.104 183.245 374.648 183.512C375.192 183.768 375.592 184.093 375.848 184.488C376.115 184.872 376.248 185.368 376.248 185.976C376.248 186.648 376.072 187.224 375.72 187.704C375.368 188.173 374.872 188.536 374.232 188.792C373.603 189.037 372.856 189.16 371.992 189.16ZM381.449 189.16C380.35 189.16 379.476 188.824 378.825 188.152C378.174 187.469 377.817 186.541 377.753 185.368C377.742 185.229 377.737 185.053 377.737 184.84C377.737 184.616 377.742 184.435 377.753 184.296C377.796 183.539 377.972 182.877 378.281 182.312C378.59 181.736 379.012 181.293 379.545 180.984C380.089 180.675 380.724 180.52 381.449 180.52C382.26 180.52 382.937 180.691 383.481 181.032C384.036 181.373 384.457 181.859 384.745 182.488C385.033 183.117 385.177 183.853 385.177 184.696V184.968C385.177 185.085 385.14 185.176 385.065 185.24C385.001 185.304 384.916 185.336 384.809 185.336H379.273C379.273 185.347 379.273 185.368 379.273 185.4C379.273 185.432 379.273 185.459 379.273 185.48C379.294 185.917 379.39 186.328 379.561 186.712C379.732 187.085 379.977 187.389 380.297 187.624C380.617 187.859 381.001 187.976 381.449 187.976C381.833 187.976 382.153 187.917 382.409 187.8C382.665 187.683 382.873 187.555 383.033 187.416C383.193 187.267 383.3 187.155 383.353 187.08C383.449 186.941 383.524 186.861 383.577 186.84C383.63 186.808 383.716 186.792 383.833 186.792H384.601C384.708 186.792 384.793 186.824 384.857 186.888C384.932 186.941 384.964 187.021 384.953 187.128C384.942 187.288 384.857 187.485 384.697 187.72C384.537 187.944 384.308 188.168 384.009 188.392C383.71 188.616 383.348 188.803 382.921 188.952C382.494 189.091 382.004 189.16 381.449 189.16ZM379.273 184.232H383.657V184.184C383.657 183.704 383.566 183.277 383.385 182.904C383.214 182.531 382.964 182.237 382.633 182.024C382.302 181.8 381.908 181.688 381.449 181.688C380.99 181.688 380.596 181.8 380.265 182.024C379.945 182.237 379.7 182.531 379.529 182.904C379.358 183.277 379.273 183.704 379.273 184.184V184.232ZM387.474 192.04C387.368 192.04 387.277 192.003 387.202 191.928C387.138 191.864 387.106 191.779 387.106 191.672V181.048C387.106 180.941 387.138 180.856 387.202 180.792C387.277 180.717 387.368 180.68 387.474 180.68H388.21C388.317 180.68 388.402 180.717 388.466 180.792C388.541 180.856 388.578 180.941 388.578 181.048V181.752C388.834 181.4 389.176 181.107 389.602 180.872C390.029 180.637 390.562 180.52 391.202 180.52C391.8 180.52 392.306 180.621 392.722 180.824C393.149 181.027 393.496 181.304 393.762 181.656C394.04 182.008 394.248 182.408 394.386 182.856C394.525 183.304 394.6 183.784 394.61 184.296C394.621 184.467 394.626 184.648 394.626 184.84C394.626 185.032 394.621 185.213 394.61 185.384C394.6 185.885 394.525 186.365 394.386 186.824C394.248 187.272 394.04 187.672 393.762 188.024C393.496 188.365 393.149 188.643 392.722 188.856C392.306 189.059 391.8 189.16 391.202 189.16C390.584 189.16 390.061 189.048 389.634 188.824C389.218 188.589 388.877 188.301 388.61 187.96V191.672C388.61 191.779 388.578 191.864 388.514 191.928C388.45 192.003 388.36 192.04 388.242 192.04H387.474ZM390.866 187.864C391.421 187.864 391.853 187.747 392.162 187.512C392.482 187.267 392.712 186.952 392.85 186.568C392.989 186.173 393.069 185.752 393.09 185.304C393.101 184.995 393.101 184.685 393.09 184.376C393.069 183.928 392.989 183.512 392.85 183.128C392.712 182.733 392.482 182.419 392.162 182.184C391.853 181.939 391.421 181.816 390.866 181.816C390.344 181.816 389.917 181.939 389.586 182.184C389.266 182.429 389.026 182.744 388.866 183.128C388.717 183.501 388.632 183.885 388.61 184.28C388.6 184.451 388.594 184.653 388.594 184.888C388.594 185.123 388.6 185.331 388.61 185.512C388.621 185.885 388.706 186.253 388.866 186.616C389.037 186.979 389.288 187.277 389.618 187.512C389.949 187.747 390.365 187.864 390.866 187.864Z" fill="black"/>
<path d="M413.408 189.16C412.501 189.16 411.723 189.005 411.072 188.696C410.421 188.376 409.92 187.891 409.568 187.24C409.216 186.579 409.019 185.752 408.976 184.76C408.965 184.291 408.96 183.843 408.96 183.416C408.96 182.979 408.965 182.525 408.976 182.056C409.019 181.075 409.221 180.259 409.584 179.608C409.957 178.947 410.469 178.456 411.12 178.136C411.781 177.805 412.544 177.64 413.408 177.64C414.283 177.64 415.045 177.805 415.696 178.136C416.357 178.456 416.875 178.947 417.248 179.608C417.621 180.259 417.824 181.075 417.856 182.056C417.877 182.525 417.888 182.979 417.888 183.416C417.888 183.843 417.877 184.291 417.856 184.76C417.824 185.752 417.627 186.579 417.264 187.24C416.912 187.891 416.411 188.376 415.76 188.696C415.109 189.005 414.325 189.16 413.408 189.16ZM413.408 187.8C414.229 187.8 414.896 187.555 415.408 187.064C415.931 186.573 416.213 185.779 416.256 184.68C416.277 184.2 416.288 183.773 416.288 183.4C416.288 183.016 416.277 182.589 416.256 182.12C416.235 181.384 416.096 180.787 415.84 180.328C415.595 179.869 415.264 179.533 414.848 179.32C414.432 179.107 413.952 179 413.408 179C412.885 179 412.416 179.107 412 179.32C411.584 179.533 411.248 179.869 410.992 180.328C410.747 180.787 410.608 181.384 410.576 182.12C410.565 182.589 410.56 183.016 410.56 183.4C410.56 183.773 410.565 184.2 410.576 184.68C410.619 185.779 410.901 186.573 411.424 187.064C411.947 187.555 412.608 187.8 413.408 187.8ZM420.396 189C420.289 189 420.199 188.968 420.124 188.904C420.06 188.829 420.028 188.739 420.028 188.632V178.008C420.028 177.901 420.06 177.816 420.124 177.752C420.199 177.677 420.289 177.64 420.396 177.64H421.148C421.255 177.64 421.34 177.677 421.404 177.752C421.479 177.816 421.516 177.901 421.516 178.008V183.576L424.668 180.952C424.796 180.845 424.892 180.776 424.956 180.744C425.031 180.701 425.148 180.68 425.308 180.68H426.156C426.252 180.68 426.332 180.712 426.396 180.776C426.46 180.84 426.492 180.92 426.492 181.016C426.492 181.059 426.476 181.107 426.444 181.16C426.423 181.213 426.375 181.267 426.3 181.32L422.604 184.392L426.7 188.376C426.828 188.483 426.892 188.579 426.892 188.664C426.892 188.76 426.86 188.84 426.796 188.904C426.732 188.968 426.652 189 426.556 189H425.724C425.564 189 425.447 188.984 425.372 188.952C425.297 188.909 425.201 188.835 425.084 188.728L421.516 185.32V188.632C421.516 188.739 421.479 188.829 421.404 188.904C421.34 188.968 421.255 189 421.148 189H420.396ZM431.51 189C430.913 189 430.427 188.888 430.054 188.664C429.681 188.429 429.409 188.104 429.238 187.688C429.067 187.261 428.982 186.76 428.982 186.184V181.96H427.734C427.627 181.96 427.537 181.928 427.462 181.864C427.398 181.789 427.366 181.699 427.366 181.592V181.048C427.366 180.941 427.398 180.856 427.462 180.792C427.537 180.717 427.627 180.68 427.734 180.68H428.982V178.008C428.982 177.901 429.014 177.816 429.078 177.752C429.153 177.677 429.243 177.64 429.35 177.64H430.102C430.209 177.64 430.294 177.677 430.358 177.752C430.433 177.816 430.47 177.901 430.47 178.008V180.68H432.454C432.561 180.68 432.646 180.717 432.71 180.792C432.785 180.856 432.822 180.941 432.822 181.048V181.592C432.822 181.699 432.785 181.789 432.71 181.864C432.646 181.928 432.561 181.96 432.454 181.96H430.47V186.072C430.47 186.573 430.555 186.968 430.726 187.256C430.897 187.544 431.201 187.688 431.638 187.688H432.614C432.721 187.688 432.806 187.725 432.87 187.8C432.945 187.864 432.982 187.949 432.982 188.056V188.632C432.982 188.739 432.945 188.829 432.87 188.904C432.806 188.968 432.721 189 432.614 189H431.51Z" fill="black"/>
<path d="M448.76 189C448.643 189 448.552 188.968 448.488 188.904C448.424 188.829 448.392 188.739 448.392 188.632V178.184C448.392 178.067 448.424 177.976 448.488 177.912C448.552 177.837 448.643 177.8 448.76 177.8H449.496C449.624 177.8 449.72 177.832 449.784 177.896C449.848 177.949 449.885 177.992 449.896 178.024L455.208 186.184V178.184C455.208 178.067 455.24 177.976 455.304 177.912C455.368 177.837 455.459 177.8 455.576 177.8H456.344C456.461 177.8 456.552 177.837 456.616 177.912C456.691 177.976 456.728 178.067 456.728 178.184V188.616C456.728 188.723 456.691 188.813 456.616 188.888C456.552 188.963 456.467 189 456.36 189H455.592C455.475 189 455.384 188.968 455.32 188.904C455.267 188.84 455.229 188.797 455.208 188.776L449.912 180.696V188.632C449.912 188.739 449.875 188.829 449.8 188.904C449.736 188.968 449.645 189 449.528 189H448.76ZM462.701 189.16C461.891 189.16 461.213 189.005 460.669 188.696C460.125 188.387 459.709 187.96 459.421 187.416C459.133 186.861 458.973 186.232 458.941 185.528C458.931 185.347 458.925 185.117 458.925 184.84C458.925 184.552 458.931 184.323 458.941 184.152C458.973 183.437 459.133 182.808 459.421 182.264C459.72 181.72 460.141 181.293 460.685 180.984C461.229 180.675 461.901 180.52 462.701 180.52C463.501 180.52 464.173 180.675 464.717 180.984C465.261 181.293 465.677 181.72 465.965 182.264C466.264 182.808 466.429 183.437 466.461 184.152C466.472 184.323 466.477 184.552 466.477 184.84C466.477 185.117 466.472 185.347 466.461 185.528C466.429 186.232 466.269 186.861 465.981 187.416C465.693 187.96 465.277 188.387 464.733 188.696C464.189 189.005 463.512 189.16 462.701 189.16ZM462.701 187.928C463.363 187.928 463.891 187.72 464.285 187.304C464.68 186.877 464.893 186.259 464.925 185.448C464.936 185.288 464.941 185.085 464.941 184.84C464.941 184.595 464.936 184.392 464.925 184.232C464.893 183.421 464.68 182.808 464.285 182.392C463.891 181.965 463.363 181.752 462.701 181.752C462.04 181.752 461.507 181.965 461.101 182.392C460.707 182.808 460.499 183.421 460.477 184.232C460.467 184.392 460.461 184.595 460.461 184.84C460.461 185.085 460.467 185.288 460.477 185.448C460.499 186.259 460.707 186.877 461.101 187.304C461.507 187.72 462.04 187.928 462.701 187.928ZM471.08 189C470.92 189 470.792 188.963 470.696 188.888C470.611 188.813 470.541 188.717 470.488 188.6L467.528 181.176C467.507 181.123 467.496 181.069 467.496 181.016C467.496 180.92 467.528 180.84 467.592 180.776C467.656 180.712 467.736 180.68 467.832 180.68H468.6C468.717 180.68 468.808 180.712 468.872 180.776C468.936 180.84 468.973 180.899 468.984 180.952L471.432 187.256L473.864 180.952C473.885 180.899 473.923 180.84 473.976 180.776C474.04 180.712 474.131 180.68 474.248 180.68H475.032C475.117 180.68 475.192 180.712 475.256 180.776C475.331 180.84 475.368 180.92 475.368 181.016C475.368 181.069 475.357 181.123 475.336 181.176L472.36 188.6C472.317 188.717 472.248 188.813 472.152 188.888C472.067 188.963 471.939 189 471.768 189H471.08Z" fill="black"/>
<path d="M488.76 189C488.643 189 488.552 188.968 488.488 188.904C488.424 188.829 488.392 188.739 488.392 188.632V178.184C488.392 178.067 488.424 177.976 488.488 177.912C488.552 177.837 488.643 177.8 488.76 177.8H492.392C493.491 177.8 494.376 177.965 495.048 178.296C495.72 178.627 496.211 179.117 496.52 179.768C496.829 180.408 496.989 181.197 497 182.136C497.011 182.616 497.016 183.037 497.016 183.4C497.016 183.763 497.011 184.179 497 184.648C496.979 185.629 496.813 186.445 496.504 187.096C496.205 187.736 495.725 188.216 495.064 188.536C494.413 188.845 493.549 189 492.472 189H488.76ZM489.96 187.64H492.392C493.128 187.64 493.715 187.539 494.152 187.336C494.589 187.133 494.904 186.808 495.096 186.36C495.299 185.912 495.405 185.32 495.416 184.584C495.437 184.264 495.448 183.987 495.448 183.752C495.448 183.507 495.448 183.267 495.448 183.032C495.448 182.787 495.437 182.509 495.416 182.2C495.395 181.165 495.149 180.403 494.68 179.912C494.211 179.411 493.421 179.16 492.312 179.16H489.96V187.64ZM502.527 189.16C501.429 189.16 500.554 188.824 499.903 188.152C499.253 187.469 498.895 186.541 498.831 185.368C498.821 185.229 498.815 185.053 498.815 184.84C498.815 184.616 498.821 184.435 498.831 184.296C498.874 183.539 499.05 182.877 499.359 182.312C499.669 181.736 500.09 181.293 500.623 180.984C501.167 180.675 501.802 180.52 502.527 180.52C503.338 180.52 504.015 180.691 504.559 181.032C505.114 181.373 505.535 181.859 505.823 182.488C506.111 183.117 506.255 183.853 506.255 184.696V184.968C506.255 185.085 506.218 185.176 506.143 185.24C506.079 185.304 505.994 185.336 505.887 185.336H500.351C500.351 185.347 500.351 185.368 500.351 185.4C500.351 185.432 500.351 185.459 500.351 185.48C500.373 185.917 500.469 186.328 500.639 186.712C500.81 187.085 501.055 187.389 501.375 187.624C501.695 187.859 502.079 187.976 502.527 187.976C502.911 187.976 503.231 187.917 503.487 187.8C503.743 187.683 503.951 187.555 504.111 187.416C504.271 187.267 504.378 187.155 504.431 187.08C504.527 186.941 504.602 186.861 504.655 186.84C504.709 186.808 504.794 186.792 504.911 186.792H505.679C505.786 186.792 505.871 186.824 505.935 186.888C506.01 186.941 506.042 187.021 506.031 187.128C506.021 187.288 505.935 187.485 505.775 187.72C505.615 187.944 505.386 188.168 505.087 188.392C504.789 188.616 504.426 188.803 503.999 188.952C503.573 189.091 503.082 189.16 502.527 189.16ZM500.351 184.232H504.735V184.184C504.735 183.704 504.645 183.277 504.463 182.904C504.293 182.531 504.042 182.237 503.711 182.024C503.381 181.8 502.986 181.688 502.527 181.688C502.069 181.688 501.674 181.8 501.343 182.024C501.023 182.237 500.778 182.531 500.607 182.904C500.437 183.277 500.351 183.704 500.351 184.184V184.232ZM511.048 189.16C510.451 189.16 509.939 189.085 509.512 188.936C509.086 188.787 508.739 188.605 508.472 188.392C508.206 188.179 508.003 187.965 507.864 187.752C507.736 187.539 507.667 187.368 507.656 187.24C507.646 187.123 507.683 187.032 507.768 186.968C507.854 186.904 507.939 186.872 508.024 186.872H508.728C508.792 186.872 508.84 186.883 508.872 186.904C508.915 186.915 508.968 186.957 509.032 187.032C509.171 187.181 509.326 187.331 509.496 187.48C509.667 187.629 509.875 187.752 510.12 187.848C510.376 187.944 510.691 187.992 511.064 187.992C511.608 187.992 512.056 187.891 512.408 187.688C512.76 187.475 512.936 187.165 512.936 186.76C512.936 186.493 512.862 186.28 512.712 186.12C512.574 185.96 512.318 185.816 511.944 185.688C511.582 185.56 511.08 185.427 510.44 185.288C509.8 185.139 509.294 184.957 508.92 184.744C508.547 184.52 508.28 184.259 508.12 183.96C507.96 183.651 507.88 183.304 507.88 182.92C507.88 182.525 507.998 182.147 508.232 181.784C508.467 181.411 508.808 181.107 509.256 180.872C509.715 180.637 510.286 180.52 510.968 180.52C511.523 180.52 511.998 180.589 512.392 180.728C512.787 180.867 513.112 181.043 513.368 181.256C513.624 181.459 513.816 181.661 513.944 181.864C514.072 182.067 514.142 182.237 514.152 182.376C514.163 182.483 514.131 182.573 514.056 182.648C513.982 182.712 513.896 182.744 513.8 182.744H513.128C513.054 182.744 512.99 182.728 512.936 182.696C512.894 182.664 512.851 182.627 512.808 182.584C512.702 182.445 512.574 182.307 512.424 182.168C512.286 182.029 512.099 181.917 511.864 181.832C511.64 181.736 511.342 181.688 510.968 181.688C510.435 181.688 510.035 181.8 509.768 182.024C509.502 182.248 509.368 182.531 509.368 182.872C509.368 183.075 509.427 183.256 509.544 183.416C509.662 183.576 509.886 183.72 510.216 183.848C510.547 183.976 511.038 184.115 511.688 184.264C512.392 184.403 512.947 184.589 513.352 184.824C513.758 185.059 514.046 185.331 514.216 185.64C514.387 185.949 514.472 186.307 514.472 186.712C514.472 187.16 514.339 187.571 514.072 187.944C513.816 188.317 513.432 188.616 512.92 188.84C512.419 189.053 511.795 189.16 511.048 189.16Z" fill="black"/>
<path d="M2.152 15C2.04533 15 1.95467 14.968 1.88 14.904C1.816 14.8293 1.784 14.7387 1.784 14.632V14.12C1.784 14.024 1.81067 13.9173 1.864 13.8C1.91733 13.6827 2.024 13.5547 2.184 13.416L5.576 10.024C6.12 9.56533 6.54667 9.176 6.856 8.856C7.176 8.52533 7.4 8.21067 7.528 7.912C7.66667 7.61333 7.736 7.304 7.736 6.984C7.736 6.376 7.56533 5.896 7.224 5.544C6.88267 5.18133 6.376 5 5.704 5C5.27733 5 4.90933 5.09067 4.6 5.272C4.29067 5.44267 4.04533 5.68267 3.864 5.992C3.69333 6.29067 3.58133 6.632 3.528 7.016C3.50667 7.15467 3.448 7.25067 3.352 7.304C3.26667 7.35733 3.18667 7.384 3.112 7.384H2.28C2.184 7.384 2.104 7.35733 2.04 7.304C1.976 7.24 1.944 7.16533 1.944 7.08C1.95467 6.67467 2.04 6.26933 2.2 5.864C2.36 5.448 2.59467 5.07467 2.904 4.744C3.224 4.41333 3.61333 4.14667 4.072 3.944C4.54133 3.73067 5.08533 3.624 5.704 3.624C6.54667 3.624 7.23467 3.77867 7.768 4.088C8.312 4.38667 8.712 4.78667 8.968 5.288C9.224 5.78933 9.352 6.33867 9.352 6.936C9.352 7.40533 9.272 7.83733 9.112 8.232C8.952 8.616 8.71733 8.99467 8.408 9.368C8.10933 9.73067 7.736 10.104 7.288 10.488L4.216 13.608H9.208C9.32533 13.608 9.416 13.64 9.48 13.704C9.55467 13.768 9.592 13.8587 9.592 13.976V14.632C9.592 14.7387 9.55467 14.8293 9.48 14.904C9.416 14.968 9.32533 15 9.208 15H2.152ZM11.4626 16.2C11.3773 16.2 11.308 16.168 11.2546 16.104C11.212 16.04 11.196 15.96 11.2066 15.864L11.5746 13.576C11.596 13.448 11.6386 13.3413 11.7026 13.256C11.7773 13.16 11.884 13.112 12.0226 13.112H13.0946C13.1693 13.112 13.228 13.1387 13.2706 13.192C13.324 13.2453 13.3506 13.3093 13.3506 13.384C13.3506 13.4693 13.3293 13.5547 13.2866 13.64L12.4546 15.832C12.412 15.9387 12.3533 16.024 12.2786 16.088C12.2146 16.1627 12.1186 16.2 11.9906 16.2H11.4626ZM19.047 15.16C18.2043 15.16 17.4897 15.016 16.903 14.728C16.327 14.4293 15.8843 14.0453 15.575 13.576C15.2763 13.1067 15.1163 12.6107 15.095 12.088C15.0843 11.992 15.111 11.9173 15.175 11.864C15.239 11.8107 15.319 11.784 15.415 11.784H16.279C16.375 11.784 16.4603 11.8053 16.535 11.848C16.6097 11.8907 16.6683 11.9813 16.711 12.12C16.8177 12.5147 16.9883 12.84 17.223 13.096C17.4683 13.3413 17.7457 13.5227 18.055 13.64C18.375 13.7467 18.7057 13.8 19.047 13.8C19.5057 13.8 19.9217 13.7093 20.295 13.528C20.679 13.336 20.983 13.0587 21.207 12.696C21.431 12.3227 21.543 11.8747 21.543 11.352C21.543 10.872 21.431 10.4613 21.207 10.12C20.9937 9.768 20.695 9.50133 20.311 9.32C19.9377 9.128 19.5163 9.032 19.047 9.032C18.695 9.032 18.407 9.07467 18.183 9.16C17.959 9.24533 17.767 9.34667 17.607 9.464C17.4577 9.58133 17.319 9.68267 17.191 9.768C17.0737 9.85333 16.9403 9.896 16.791 9.896H15.959C15.863 9.896 15.7777 9.864 15.703 9.8C15.6283 9.72533 15.5963 9.64 15.607 9.544L16.119 4.2C16.1297 4.072 16.167 3.976 16.231 3.912C16.3057 3.83733 16.4017 3.8 16.519 3.8H22.103C22.2097 3.8 22.295 3.83733 22.359 3.912C22.4337 3.976 22.471 4.06133 22.471 4.168V4.792C22.471 4.90933 22.4337 5 22.359 5.064C22.295 5.128 22.2097 5.16 22.103 5.16H17.495L17.191 8.312C17.3403 8.216 17.5803 8.104 17.911 7.976C18.2417 7.83733 18.695 7.768 19.271 7.768C19.7937 7.768 20.2843 7.848 20.743 8.008C21.2123 8.168 21.6283 8.40267 21.991 8.712C22.3537 9.02133 22.6363 9.4 22.839 9.848C23.0417 10.2853 23.143 10.792 23.143 11.368C23.143 12.1787 22.9617 12.8667 22.599 13.432C22.247 13.9973 21.7617 14.4293 21.143 14.728C20.535 15.016 19.8363 15.16 19.047 15.16ZM27.6209 18.04C27.5142 18.04 27.4289 18.0027 27.3649 17.928C27.2902 17.864 27.2529 17.7787 27.2529 17.672V17.128C27.2529 17.0213 27.2902 16.9307 27.3649 16.856C27.4289 16.792 27.5142 16.76 27.6209 16.76H27.8449C28.2289 16.76 28.5115 16.6853 28.6929 16.536C28.8742 16.3973 28.9915 16.2107 29.0449 15.976C29.1089 15.7413 29.1409 15.4747 29.1409 15.176V7.048C29.1409 6.94133 29.1729 6.856 29.2369 6.792C29.3115 6.71733 29.4022 6.68 29.5089 6.68H30.2929C30.3995 6.68 30.4849 6.71733 30.5489 6.792C30.6235 6.856 30.6609 6.94133 30.6609 7.048V15.192C30.6609 15.7573 30.5702 16.2533 30.3889 16.68C30.2182 17.1067 29.9355 17.4373 29.5409 17.672C29.1462 17.9173 28.6075 18.04 27.9249 18.04H27.6209ZM29.3809 5.128C29.2742 5.128 29.1835 5.096 29.1089 5.032C29.0449 4.95733 29.0129 4.86667 29.0129 4.76V3.896C29.0129 3.78933 29.0449 3.704 29.1089 3.64C29.1835 3.56533 29.2742 3.528 29.3809 3.528H30.4049C30.5115 3.528 30.6022 3.56533 30.6769 3.64C30.7515 3.704 30.7889 3.78933 30.7889 3.896V4.76C30.7889 4.86667 30.7515 4.95733 30.6769 5.032C30.6022 5.096 30.5115 5.128 30.4049 5.128H29.3809ZM36.2914 15C35.694 15 35.2087 14.888 34.8354 14.664C34.462 14.4293 34.19 14.104 34.0194 13.688C33.8487 13.2613 33.7634 12.76 33.7634 12.184V7.96H32.5154C32.4087 7.96 32.318 7.928 32.2434 7.864C32.1794 7.78933 32.1474 7.69867 32.1474 7.592V7.048C32.1474 6.94133 32.1794 6.856 32.2434 6.792C32.318 6.71733 32.4087 6.68 32.5154 6.68H33.7634V4.008C33.7634 3.90133 33.7954 3.816 33.8594 3.752C33.934 3.67733 34.0247 3.64 34.1314 3.64H34.8834C34.99 3.64 35.0754 3.67733 35.1394 3.752C35.214 3.816 35.2514 3.90133 35.2514 4.008V6.68H37.2354C37.342 6.68 37.4274 6.71733 37.4914 6.792C37.566 6.856 37.6034 6.94133 37.6034 7.048V7.592C37.6034 7.69867 37.566 7.78933 37.4914 7.864C37.4274 7.928 37.342 7.96 37.2354 7.96H35.2514V12.072C35.2514 12.5733 35.3367 12.968 35.5074 13.256C35.678 13.544 35.982 13.688 36.4194 13.688H37.3954C37.502 13.688 37.5874 13.7253 37.6514 13.8C37.726 13.864 37.7634 13.9493 37.7634 14.056V14.632C37.7634 14.7387 37.726 14.8293 37.6514 14.904C37.5874 14.968 37.502 15 37.3954 15H36.2914Z" fill="black"/>
<path d="M16.152 46C16.0453 46 15.9547 45.968 15.88 45.904C15.816 45.8293 15.784 45.7387 15.784 45.632V45.12C15.784 45.024 15.8107 44.9173 15.864 44.8C15.9173 44.6827 16.024 44.5547 16.184 44.416L19.576 41.024C20.12 40.5653 20.5467 40.176 20.856 39.856C21.176 39.5253 21.4 39.2107 21.528 38.912C21.6667 38.6133 21.736 38.304 21.736 37.984C21.736 37.376 21.5653 36.896 21.224 36.544C20.8827 36.1813 20.376 36 19.704 36C19.2773 36 18.9093 36.0907 18.6 36.272C18.2907 36.4427 18.0453 36.6827 17.864 36.992C17.6933 37.2907 17.5813 37.632 17.528 38.016C17.5067 38.1547 17.448 38.2507 17.352 38.304C17.2667 38.3573 17.1867 38.384 17.112 38.384H16.28C16.184 38.384 16.104 38.3573 16.04 38.304C15.976 38.24 15.944 38.1653 15.944 38.08C15.9547 37.6747 16.04 37.2693 16.2 36.864C16.36 36.448 16.5947 36.0747 16.904 35.744C17.224 35.4133 17.6133 35.1467 18.072 34.944C18.5413 34.7307 19.0853 34.624 19.704 34.624C20.5467 34.624 21.2347 34.7787 21.768 35.088C22.312 35.3867 22.712 35.7867 22.968 36.288C23.224 36.7893 23.352 37.3387 23.352 37.936C23.352 38.4053 23.272 38.8373 23.112 39.232C22.952 39.616 22.7173 39.9947 22.408 40.368C22.1093 40.7307 21.736 41.104 21.288 41.488L18.216 44.608H23.208C23.3253 44.608 23.416 44.64 23.48 44.704C23.5547 44.768 23.592 44.8587 23.592 44.976V45.632C23.592 45.7387 23.5547 45.8293 23.48 45.904C23.416 45.968 23.3253 46 23.208 46H16.152ZM28.1365 49.04C28.0298 49.04 27.9445 49.0027 27.8805 48.928C27.8058 48.864 27.7685 48.7787 27.7685 48.672V48.128C27.7685 48.0213 27.8058 47.9307 27.8805 47.856C27.9445 47.792 28.0298 47.76 28.1365 47.76H28.3605C28.7445 47.76 29.0272 47.6853 29.2085 47.536C29.3898 47.3973 29.5072 47.2107 29.5605 46.976C29.6245 46.7413 29.6565 46.4747 29.6565 46.176V38.048C29.6565 37.9413 29.6885 37.856 29.7525 37.792C29.8272 37.7173 29.9178 37.68 30.0245 37.68H30.8085C30.9152 37.68 31.0005 37.7173 31.0645 37.792C31.1392 37.856 31.1765 37.9413 31.1765 38.048V46.192C31.1765 46.7573 31.0858 47.2533 30.9045 47.68C30.7338 48.1067 30.4512 48.4373 30.0565 48.672C29.6618 48.9173 29.1232 49.04 28.4405 49.04H28.1365ZM29.8965 36.128C29.7898 36.128 29.6992 36.096 29.6245 36.032C29.5605 35.9573 29.5285 35.8667 29.5285 35.76V34.896C29.5285 34.7893 29.5605 34.704 29.6245 34.64C29.6992 34.5653 29.7898 34.528 29.8965 34.528H30.9205C31.0272 34.528 31.1178 34.5653 31.1925 34.64C31.2672 34.704 31.3045 34.7893 31.3045 34.896V35.76C31.3045 35.8667 31.2672 35.9573 31.1925 36.032C31.1178 36.096 31.0272 36.128 30.9205 36.128H29.8965ZM36.807 46C36.2097 46 35.7243 45.888 35.351 45.664C34.9777 45.4293 34.7057 45.104 34.535 44.688C34.3643 44.2613 34.279 43.76 34.279 43.184V38.96H33.031C32.9243 38.96 32.8337 38.928 32.759 38.864C32.695 38.7893 32.663 38.6987 32.663 38.592V38.048C32.663 37.9413 32.695 37.856 32.759 37.792C32.8337 37.7173 32.9243 37.68 33.031 37.68H34.279V35.008C34.279 34.9013 34.311 34.816 34.375 34.752C34.4497 34.6773 34.5403 34.64 34.647 34.64H35.399C35.5057 34.64 35.591 34.6773 35.655 34.752C35.7297 34.816 35.767 34.9013 35.767 35.008V37.68H37.751C37.8577 37.68 37.943 37.7173 38.007 37.792C38.0817 37.856 38.119 37.9413 38.119 38.048V38.592C38.119 38.6987 38.0817 38.7893 38.007 38.864C37.943 38.928 37.8577 38.96 37.751 38.96H35.767V43.072C35.767 43.5733 35.8523 43.968 36.023 44.256C36.1937 44.544 36.4977 44.688 36.935 44.688H37.911C38.0177 44.688 38.103 44.7253 38.167 44.8C38.2417 44.864 38.279 44.9493 38.279 45.056V45.632C38.279 45.7387 38.2417 45.8293 38.167 45.904C38.103 45.968 38.0177 46 37.911 46H36.807Z" fill="black"/>
<path d="M8.416 77C8.30933 77 8.21867 76.968 8.144 76.904C8.08 76.8293 8.048 76.7387 8.048 76.632V67.672L5.392 69.72C5.30667 69.784 5.216 69.8107 5.12 69.8C5.024 69.7893 4.944 69.7413 4.88 69.656L4.464 69.128C4.4 69.032 4.37333 68.936 4.384 68.84C4.40533 68.744 4.45867 68.664 4.544 68.6L8.032 65.912C8.10667 65.8587 8.176 65.8267 8.24 65.816C8.304 65.8053 8.37333 65.8 8.448 65.8H9.264C9.37067 65.8 9.456 65.8373 9.52 65.912C9.584 65.976 9.616 66.0613 9.616 66.168V76.632C9.616 76.7387 9.584 76.8293 9.52 76.904C9.456 76.968 9.37067 77 9.264 77H8.416ZM11.9158 78.2C11.8304 78.2 11.7611 78.168 11.7078 78.104C11.6651 78.04 11.6491 77.96 11.6598 77.864L12.0278 75.576C12.0491 75.448 12.0918 75.3413 12.1558 75.256C12.2304 75.16 12.3371 75.112 12.4758 75.112H13.5478C13.6224 75.112 13.6811 75.1387 13.7238 75.192C13.7771 75.2453 13.8038 75.3093 13.8038 75.384C13.8038 75.4693 13.7824 75.5547 13.7398 75.64L12.9078 77.832C12.8651 77.9387 12.8064 78.024 12.7318 78.088C12.6678 78.1627 12.5718 78.2 12.4438 78.2H11.9158ZM19.5001 77.16C18.6575 77.16 17.9428 77.016 17.3561 76.728C16.7801 76.4293 16.3375 76.0453 16.0281 75.576C15.7295 75.1067 15.5695 74.6107 15.5481 74.088C15.5375 73.992 15.5641 73.9173 15.6281 73.864C15.6921 73.8107 15.7721 73.784 15.8681 73.784H16.7321C16.8281 73.784 16.9135 73.8053 16.9881 73.848C17.0628 73.8907 17.1215 73.9813 17.1641 74.12C17.2708 74.5147 17.4415 74.84 17.6761 75.096C17.9215 75.3413 18.1988 75.5227 18.5081 75.64C18.8281 75.7467 19.1588 75.8 19.5001 75.8C19.9588 75.8 20.3748 75.7093 20.7481 75.528C21.1321 75.336 21.4361 75.0587 21.6601 74.696C21.8841 74.3227 21.9961 73.8747 21.9961 73.352C21.9961 72.872 21.8841 72.4613 21.6601 72.12C21.4468 71.768 21.1481 71.5013 20.7641 71.32C20.3908 71.128 19.9695 71.032 19.5001 71.032C19.1481 71.032 18.8601 71.0747 18.6361 71.16C18.4121 71.2453 18.2201 71.3467 18.0601 71.464C17.9108 71.5813 17.7721 71.6827 17.6441 71.768C17.5268 71.8533 17.3935 71.896 17.2441 71.896H16.4121C16.3161 71.896 16.2308 71.864 16.1561 71.8C16.0815 71.7253 16.0495 71.64 16.0601 71.544L16.5721 66.2C16.5828 66.072 16.6201 65.976 16.6841 65.912C16.7588 65.8373 16.8548 65.8 16.9721 65.8H22.5561C22.6628 65.8 22.7481 65.8373 22.8121 65.912C22.8868 65.976 22.9241 66.0613 22.9241 66.168V66.792C22.9241 66.9093 22.8868 67 22.8121 67.064C22.7481 67.128 22.6628 67.16 22.5561 67.16H17.9481L17.6441 70.312C17.7935 70.216 18.0335 70.104 18.3641 69.976C18.6948 69.8373 19.1481 69.768 19.7241 69.768C20.2468 69.768 20.7375 69.848 21.1961 70.008C21.6655 70.168 22.0815 70.4027 22.4441 70.712C22.8068 71.0213 23.0895 71.4 23.2921 71.848C23.4948 72.2853 23.5961 72.792 23.5961 73.368C23.5961 74.1787 23.4148 74.8667 23.0521 75.432C22.7001 75.9973 22.2148 76.4293 21.5961 76.728C20.9881 77.016 20.2895 77.16 19.5001 77.16ZM28.074 80.04C27.9673 80.04 27.882 80.0027 27.818 79.928C27.7433 79.864 27.706 79.7787 27.706 79.672V79.128C27.706 79.0213 27.7433 78.9307 27.818 78.856C27.882 78.792 27.9673 78.76 28.074 78.76H28.298C28.682 78.76 28.9647 78.6853 29.146 78.536C29.3273 78.3973 29.4447 78.2107 29.498 77.976C29.562 77.7413 29.594 77.4747 29.594 77.176V69.048C29.594 68.9413 29.626 68.856 29.69 68.792C29.7647 68.7173 29.8553 68.68 29.962 68.68H30.746C30.8527 68.68 30.938 68.7173 31.002 68.792C31.0767 68.856 31.114 68.9413 31.114 69.048V77.192C31.114 77.7573 31.0233 78.2533 30.842 78.68C30.6713 79.1067 30.3887 79.4373 29.994 79.672C29.5993 79.9173 29.0607 80.04 28.378 80.04H28.074ZM29.834 67.128C29.7273 67.128 29.6367 67.096 29.562 67.032C29.498 66.9573 29.466 66.8667 29.466 66.76V65.896C29.466 65.7893 29.498 65.704 29.562 65.64C29.6367 65.5653 29.7273 65.528 29.834 65.528H30.858C30.9647 65.528 31.0553 65.5653 31.13 65.64C31.2047 65.704 31.242 65.7893 31.242 65.896V66.76C31.242 66.8667 31.2047 66.9573 31.13 67.032C31.0553 67.096 30.9647 67.128 30.858 67.128H29.834ZM36.7445 77C36.1472 77 35.6618 76.888 35.2885 76.664C34.9152 76.4293 34.6432 76.104 34.4725 75.688C34.3018 75.2613 34.2165 74.76 34.2165 74.184V69.96H32.9685C32.8618 69.96 32.7712 69.928 32.6965 69.864C32.6325 69.7893 32.6005 69.6987 32.6005 69.592V69.048C32.6005 68.9413 32.6325 68.856 32.6965 68.792C32.7712 68.7173 32.8618 68.68 32.9685 68.68H34.2165V66.008C34.2165 65.9013 34.2485 65.816 34.3125 65.752C34.3872 65.6773 34.4778 65.64 34.5845 65.64H35.3365C35.4432 65.64 35.5285 65.6773 35.5925 65.752C35.6672 65.816 35.7045 65.9013 35.7045 66.008V68.68H37.6885C37.7952 68.68 37.8805 68.7173 37.9445 68.792C38.0192 68.856 38.0565 68.9413 38.0565 69.048V69.592C38.0565 69.6987 38.0192 69.7893 37.9445 69.864C37.8805 69.928 37.7952 69.96 37.6885 69.96H35.7045V74.072C35.7045 74.5733 35.7898 74.968 35.9605 75.256C36.1312 75.544 36.4352 75.688 36.8725 75.688H37.8485C37.9552 75.688 38.0405 75.7253 38.1045 75.8C38.1792 75.864 38.2165 75.9493 38.2165 76.056V76.632C38.2165 76.7387 38.1792 76.8293 38.1045 76.904C38.0405 76.968 37.9552 77 37.8485 77H36.7445Z" fill="black"/>
<path d="M21.416 108C21.3093 108 21.2187 107.968 21.144 107.904C21.08 107.829 21.048 107.739 21.048 107.632V98.672L18.392 100.72C18.3067 100.784 18.216 100.811 18.12 100.8C18.024 100.789 17.944 100.741 17.88 100.656L17.464 100.128C17.4 100.032 17.3733 99.936 17.384 99.84C17.4053 99.744 17.4587 99.664 17.544 99.6L21.032 96.912C21.1067 96.8587 21.176 96.8267 21.24 96.816C21.304 96.8053 21.3733 96.8 21.448 96.8H22.264C22.3707 96.8 22.456 96.8373 22.52 96.912C22.584 96.976 22.616 97.0613 22.616 97.168V107.632C22.616 107.739 22.584 107.829 22.52 107.904C22.456 107.968 22.3707 108 22.264 108H21.416ZM27.5896 111.04C27.483 111.04 27.3976 111.003 27.3336 110.928C27.259 110.864 27.2216 110.779 27.2216 110.672V110.128C27.2216 110.021 27.259 109.931 27.3336 109.856C27.3976 109.792 27.483 109.76 27.5896 109.76H27.8136C28.1976 109.76 28.4803 109.685 28.6616 109.536C28.843 109.397 28.9603 109.211 29.0136 108.976C29.0776 108.741 29.1096 108.475 29.1096 108.176V100.048C29.1096 99.9413 29.1416 99.856 29.2056 99.792C29.2803 99.7173 29.371 99.68 29.4776 99.68H30.2616C30.3683 99.68 30.4536 99.7173 30.5176 99.792C30.5923 99.856 30.6296 99.9413 30.6296 100.048V108.192C30.6296 108.757 30.539 109.253 30.3576 109.68C30.187 110.107 29.9043 110.437 29.5096 110.672C29.115 110.917 28.5763 111.04 27.8936 111.04H27.5896ZM29.3496 98.128C29.243 98.128 29.1523 98.096 29.0776 98.032C29.0136 97.9573 28.9816 97.8667 28.9816 97.76V96.896C28.9816 96.7893 29.0136 96.704 29.0776 96.64C29.1523 96.5653 29.243 96.528 29.3496 96.528H30.3736C30.4803 96.528 30.571 96.5653 30.6456 96.64C30.7203 96.704 30.7576 96.7893 30.7576 96.896V97.76C30.7576 97.8667 30.7203 97.9573 30.6456 98.032C30.571 98.096 30.4803 98.128 30.3736 98.128H29.3496ZM36.2601 108C35.6628 108 35.1775 107.888 34.8041 107.664C34.4308 107.429 34.1588 107.104 33.9881 106.688C33.8175 106.261 33.7321 105.76 33.7321 105.184V100.96H32.4841C32.3775 100.96 32.2868 100.928 32.2121 100.864C32.1481 100.789 32.1161 100.699 32.1161 100.592V100.048C32.1161 99.9413 32.1481 99.856 32.2121 99.792C32.2868 99.7173 32.3775 99.68 32.4841 99.68H33.7321V97.008C33.7321 96.9013 33.7641 96.816 33.8281 96.752C33.9028 96.6773 33.9935 96.64 34.1001 96.64H34.8521C34.9588 96.64 35.0441 96.6773 35.1081 96.752C35.1828 96.816 35.2201 96.9013 35.2201 97.008V99.68H37.2041C37.3108 99.68 37.3961 99.7173 37.4601 99.792C37.5348 99.856 37.5721 99.9413 37.5721 100.048V100.592C37.5721 100.699 37.5348 100.789 37.4601 100.864C37.3961 100.928 37.3108 100.96 37.2041 100.96H35.2201V105.072C35.2201 105.573 35.3055 105.968 35.4761 106.256C35.6468 106.544 35.9508 106.688 36.3881 106.688H37.3641C37.4708 106.688 37.5561 106.725 37.6201 106.8C37.6948 106.864 37.7321 106.949 37.7321 107.056V107.632C37.7321 107.739 37.6948 107.829 37.6201 107.904C37.5561 107.968 37.4708 108 37.3641 108H36.2601Z" fill="black"/>
<path d="M4.672 139.16C3.82933 139.16 3.11467 139.016 2.528 138.728C1.952 138.429 1.50933 138.045 1.2 137.576C0.901333 137.107 0.741333 136.611 0.72 136.088C0.709333 135.992 0.736 135.917 0.8 135.864C0.864 135.811 0.944 135.784 1.04 135.784H1.904C2 135.784 2.08533 135.805 2.16 135.848C2.23467 135.891 2.29333 135.981 2.336 136.12C2.44267 136.515 2.61333 136.84 2.848 137.096C3.09333 137.341 3.37067 137.523 3.68 137.64C4 137.747 4.33067 137.8 4.672 137.8C5.13067 137.8 5.54667 137.709 5.92 137.528C6.304 137.336 6.608 137.059 6.832 136.696C7.056 136.323 7.168 135.875 7.168 135.352C7.168 134.872 7.056 134.461 6.832 134.12C6.61867 133.768 6.32 133.501 5.936 133.32C5.56267 133.128 5.14133 133.032 4.672 133.032C4.32 133.032 4.032 133.075 3.808 133.16C3.584 133.245 3.392 133.347 3.232 133.464C3.08267 133.581 2.944 133.683 2.816 133.768C2.69867 133.853 2.56533 133.896 2.416 133.896H1.584C1.488 133.896 1.40267 133.864 1.328 133.8C1.25333 133.725 1.22133 133.64 1.232 133.544L1.744 128.2C1.75467 128.072 1.792 127.976 1.856 127.912C1.93067 127.837 2.02667 127.8 2.144 127.8H7.728C7.83467 127.8 7.92 127.837 7.984 127.912C8.05867 127.976 8.096 128.061 8.096 128.168V128.792C8.096 128.909 8.05867 129 7.984 129.064C7.92 129.128 7.83467 129.16 7.728 129.16H3.12L2.816 132.312C2.96533 132.216 3.20533 132.104 3.536 131.976C3.86667 131.837 4.32 131.768 4.896 131.768C5.41867 131.768 5.90933 131.848 6.368 132.008C6.83733 132.168 7.25333 132.403 7.616 132.712C7.97867 133.021 8.26133 133.4 8.464 133.848C8.66667 134.285 8.768 134.792 8.768 135.368C8.768 136.179 8.58667 136.867 8.224 137.432C7.872 137.997 7.38667 138.429 6.768 138.728C6.16 139.016 5.46133 139.16 4.672 139.16ZM14.572 139.16C13.836 139.16 13.212 139.048 12.7 138.824C12.1987 138.589 11.788 138.269 11.468 137.864C11.148 137.459 10.9133 136.995 10.764 136.472C10.6253 135.949 10.5453 135.395 10.524 134.808C10.5133 134.52 10.5027 134.216 10.492 133.896C10.492 133.576 10.492 133.256 10.492 132.936C10.5027 132.605 10.5133 132.291 10.524 131.992C10.5347 131.405 10.6147 130.851 10.764 130.328C10.924 129.795 11.1587 129.331 11.468 128.936C11.788 128.531 12.204 128.216 12.716 127.992C13.228 127.757 13.8467 127.64 14.572 127.64C15.308 127.64 15.9267 127.757 16.428 127.992C16.94 128.216 17.356 128.531 17.676 128.936C17.996 129.331 18.2307 129.795 18.38 130.328C18.54 130.851 18.6253 131.405 18.636 131.992C18.6467 132.291 18.652 132.605 18.652 132.936C18.6627 133.256 18.6627 133.576 18.652 133.896C18.652 134.216 18.6467 134.52 18.636 134.808C18.6253 135.395 18.54 135.949 18.38 136.472C18.2307 136.995 17.996 137.459 17.676 137.864C17.3667 138.269 16.956 138.589 16.444 138.824C15.9427 139.048 15.3187 139.16 14.572 139.16ZM14.572 137.8C15.404 137.8 16.0173 137.528 16.412 136.984C16.8173 136.429 17.0253 135.677 17.036 134.728C17.0573 134.419 17.068 134.12 17.068 133.832C17.068 133.533 17.068 133.24 17.068 132.952C17.068 132.653 17.0573 132.36 17.036 132.072C17.0253 131.144 16.8173 130.403 16.412 129.848C16.0173 129.283 15.404 129 14.572 129C13.7507 129 13.1373 129.283 12.732 129.848C12.3373 130.403 12.1293 131.144 12.108 132.072C12.108 132.36 12.1027 132.653 12.092 132.952C12.092 133.24 12.092 133.533 12.092 133.832C12.1027 134.12 12.108 134.419 12.108 134.728C12.1293 135.677 12.3427 136.429 12.748 136.984C13.1533 137.528 13.7613 137.8 14.572 137.8ZM24.7283 139.16C23.9923 139.16 23.3683 139.048 22.8563 138.824C22.3549 138.589 21.9443 138.269 21.6243 137.864C21.3043 137.459 21.0696 136.995 20.9203 136.472C20.7816 135.949 20.7016 135.395 20.6803 134.808C20.6696 134.52 20.6589 134.216 20.6483 133.896C20.6483 133.576 20.6483 133.256 20.6483 132.936C20.6589 132.605 20.6696 132.291 20.6803 131.992C20.6909 131.405 20.7709 130.851 20.9203 130.328C21.0803 129.795 21.3149 129.331 21.6243 128.936C21.9443 128.531 22.3603 128.216 22.8723 127.992C23.3843 127.757 24.0029 127.64 24.7283 127.64C25.4643 127.64 26.0829 127.757 26.5843 127.992C27.0963 128.216 27.5123 128.531 27.8323 128.936C28.1523 129.331 28.3869 129.795 28.5363 130.328C28.6963 130.851 28.7816 131.405 28.7923 131.992C28.8029 132.291 28.8083 132.605 28.8083 132.936C28.8189 133.256 28.8189 133.576 28.8083 133.896C28.8083 134.216 28.8029 134.52 28.7923 134.808C28.7816 135.395 28.6963 135.949 28.5363 136.472C28.3869 136.995 28.1523 137.459 27.8323 137.864C27.5229 138.269 27.1123 138.589 26.6003 138.824C26.0989 139.048 25.4749 139.16 24.7283 139.16ZM24.7283 137.8C25.5603 137.8 26.1736 137.528 26.5683 136.984C26.9736 136.429 27.1816 135.677 27.1923 134.728C27.2136 134.419 27.2243 134.12 27.2243 133.832C27.2243 133.533 27.2243 133.24 27.2243 132.952C27.2243 132.653 27.2136 132.36 27.1923 132.072C27.1816 131.144 26.9736 130.403 26.5683 129.848C26.1736 129.283 25.5603 129 24.7283 129C23.9069 129 23.2936 129.283 22.8883 129.848C22.4936 130.403 22.2856 131.144 22.2643 132.072C22.2643 132.36 22.2589 132.653 22.2483 132.952C22.2483 133.24 22.2483 133.533 22.2483 133.832C22.2589 134.12 22.2643 134.419 22.2643 134.728C22.2856 135.677 22.4989 136.429 22.9043 136.984C23.3096 137.528 23.9176 137.8 24.7283 137.8ZM31.3805 139C31.2738 139 31.1832 138.968 31.1085 138.904C31.0445 138.829 31.0125 138.739 31.0125 138.632V128.008C31.0125 127.901 31.0445 127.816 31.1085 127.752C31.1832 127.677 31.2738 127.64 31.3805 127.64H32.1325C32.2392 127.64 32.3245 127.677 32.3885 127.752C32.4632 127.816 32.5005 127.901 32.5005 128.008V133.576L35.6525 130.952C35.7805 130.845 35.8765 130.776 35.9405 130.744C36.0152 130.701 36.1325 130.68 36.2925 130.68H37.1405C37.2365 130.68 37.3165 130.712 37.3805 130.776C37.4445 130.84 37.4765 130.92 37.4765 131.016C37.4765 131.059 37.4605 131.107 37.4285 131.16C37.4072 131.213 37.3592 131.267 37.2845 131.32L33.5885 134.392L37.6845 138.376C37.8125 138.483 37.8765 138.579 37.8765 138.664C37.8765 138.76 37.8445 138.84 37.7805 138.904C37.7165 138.968 37.6365 139 37.5405 139H36.7085C36.5485 139 36.4312 138.984 36.3565 138.952C36.2818 138.909 36.1858 138.835 36.0685 138.728L32.5005 135.32V138.632C32.5005 138.739 32.4632 138.829 32.3885 138.904C32.3245 138.968 32.2392 139 32.1325 139H31.3805Z" fill="black"/>
<path d="M33.072 170.16C32.336 170.16 31.712 170.048 31.2 169.824C30.6987 169.589 30.288 169.269 29.968 168.864C29.648 168.459 29.4133 167.995 29.264 167.472C29.1253 166.949 29.0453 166.395 29.024 165.808C29.0133 165.52 29.0027 165.216 28.992 164.896C28.992 164.576 28.992 164.256 28.992 163.936C29.0027 163.605 29.0133 163.291 29.024 162.992C29.0347 162.405 29.1147 161.851 29.264 161.328C29.424 160.795 29.6587 160.331 29.968 159.936C30.288 159.531 30.704 159.216 31.216 158.992C31.728 158.757 32.3467 158.64 33.072 158.64C33.808 158.64 34.4267 158.757 34.928 158.992C35.44 159.216 35.856 159.531 36.176 159.936C36.496 160.331 36.7307 160.795 36.88 161.328C37.04 161.851 37.1253 162.405 37.136 162.992C37.1467 163.291 37.152 163.605 37.152 163.936C37.1627 164.256 37.1627 164.576 37.152 164.896C37.152 165.216 37.1467 165.52 37.136 165.808C37.1253 166.395 37.04 166.949 36.88 167.472C36.7307 167.995 36.496 168.459 36.176 168.864C35.8667 169.269 35.456 169.589 34.944 169.824C34.4427 170.048 33.8187 170.16 33.072 170.16ZM33.072 168.8C33.904 168.8 34.5173 168.528 34.912 167.984C35.3173 167.429 35.5253 166.677 35.536 165.728C35.5573 165.419 35.568 165.12 35.568 164.832C35.568 164.533 35.568 164.24 35.568 163.952C35.568 163.653 35.5573 163.36 35.536 163.072C35.5253 162.144 35.3173 161.403 34.912 160.848C34.5173 160.283 33.904 160 33.072 160C32.2507 160 31.6373 160.283 31.232 160.848C30.8373 161.403 30.6293 162.144 30.608 163.072C30.608 163.36 30.6027 163.653 30.592 163.952C30.592 164.24 30.592 164.533 30.592 164.832C30.6027 165.12 30.608 165.419 30.608 165.728C30.6293 166.677 30.8427 167.429 31.248 167.984C31.6533 168.528 32.2613 168.8 33.072 168.8Z" fill="black"/>
</svg>
