<svg width="1294" height="611" viewBox="0 0 1294 611" fill="none" xmlns="http://www.w3.org/2000/svg">
<path d="M14.0003 0H1294V490.5L14.0003 611V0Z" fill="url(#paint0_linear_2_266)"/>
<rect x="20.689" y="257" width="9.05263" height="8.34483" transform="rotate(-90 20.689 257)" fill="#004BAE"/>
<rect x="20.689" y="238.895" width="9.05263" height="8.34483" transform="rotate(-90 20.689 238.895)" fill="#004BAE"/>
<rect x="20.689" y="220.789" width="9.05263" height="8.34483" transform="rotate(-90 20.689 220.789)" fill="#004BAE"/>
<rect x="20.689" y="202.684" width="9.05263" height="8.34483" transform="rotate(-90 20.689 202.684)" fill="#004BAE"/>
<rect x="20.689" y="184.579" width="9.05263" height="8.34483" transform="rotate(-90 20.689 184.579)" fill="#004BAE"/>
<rect x="20.689" y="166.474" width="9.05263" height="8.34483" transform="rotate(-90 20.689 166.474)" fill="#004BAE"/>
<rect x="20.689" y="148.368" width="9.05263" height="8.34483" transform="rotate(-90 20.689 148.368)" fill="#004BAE"/>
<rect x="20.689" y="130.263" width="9.05263" height="8.34483" transform="rotate(-90 20.689 130.263)" fill="#004BAE"/>
<rect x="20.689" y="112.158" width="9.05263" height="8.34483" transform="rotate(-90 20.689 112.158)" fill="#004BAE"/>
<rect x="20.689" y="94.0525" width="9.05263" height="8.34483" transform="rotate(-90 20.689 94.0525)" fill="#004BAE"/>
<rect x="37.38" y="257" width="9.05263" height="8.34483" transform="rotate(-90 37.38 257)" fill="#004BAE"/>
<rect x="37.38" y="238.895" width="9.05263" height="8.34483" transform="rotate(-90 37.38 238.895)" fill="#004BAE"/>
<rect x="37.38" y="220.789" width="9.05263" height="8.34483" transform="rotate(-90 37.38 220.789)" fill="#004BAE"/>
<rect x="37.38" y="202.684" width="9.05263" height="8.34483" transform="rotate(-90 37.38 202.684)" fill="#004BAE"/>
<rect x="37.38" y="184.579" width="9.05263" height="8.34483" transform="rotate(-90 37.38 184.579)" fill="#004BAE"/>
<rect x="37.38" y="166.474" width="9.05263" height="8.34483" transform="rotate(-90 37.38 166.474)" fill="#004BAE"/>
<rect x="37.38" y="148.368" width="9.05263" height="8.34483" transform="rotate(-90 37.38 148.368)" fill="#004BAE"/>
<rect x="37.38" y="130.263" width="9.05263" height="8.34483" transform="rotate(-90 37.38 130.263)" fill="#004BAE"/>
<rect x="37.38" y="112.158" width="9.05263" height="8.34483" transform="rotate(-90 37.38 112.158)" fill="#004BAE"/>
<rect x="37.38" y="94.0525" width="9.05263" height="8.34483" transform="rotate(-90 37.38 94.0525)" fill="#004BAE"/>
<rect x="54.0693" y="257" width="9.05263" height="8.34483" transform="rotate(-90 54.0693 257)" fill="#004BAE"/>
<rect x="54.0693" y="238.895" width="9.05263" height="8.34483" transform="rotate(-90 54.0693 238.895)" fill="#004BAE"/>
<rect x="54.0693" y="220.789" width="9.05263" height="8.34483" transform="rotate(-90 54.0693 220.789)" fill="#004BAE"/>
<rect x="54.0693" y="202.684" width="9.05263" height="8.34483" transform="rotate(-90 54.0693 202.684)" fill="#004BAE"/>
<rect x="54.0693" y="184.579" width="9.05263" height="8.34483" transform="rotate(-90 54.0693 184.579)" fill="#004BAE"/>
<rect x="54.0693" y="166.474" width="9.05263" height="8.34483" transform="rotate(-90 54.0693 166.474)" fill="#004BAE"/>
<rect x="54.0693" y="148.368" width="9.05263" height="8.34483" transform="rotate(-90 54.0693 148.368)" fill="#004BAE"/>
<rect x="54.0693" y="130.263" width="9.05263" height="8.34483" transform="rotate(-90 54.0693 130.263)" fill="#004BAE"/>
<rect x="54.0693" y="112.158" width="9.05263" height="8.34483" transform="rotate(-90 54.0693 112.158)" fill="#004BAE"/>
<rect x="54.0693" y="94.0525" width="9.05263" height="8.34483" transform="rotate(-90 54.0693 94.0525)" fill="#004BAE"/>
<rect x="70.7591" y="257" width="9.05263" height="8.34483" transform="rotate(-90 70.7591 257)" fill="#004BAE"/>
<rect x="70.7591" y="238.895" width="9.05263" height="8.34483" transform="rotate(-90 70.7591 238.895)" fill="#004BAE"/>
<rect x="70.7591" y="220.789" width="9.05263" height="8.34483" transform="rotate(-90 70.7591 220.789)" fill="#004BAE"/>
<rect x="70.7591" y="202.684" width="9.05263" height="8.34483" transform="rotate(-90 70.7591 202.684)" fill="#004BAE"/>
<rect x="70.7591" y="184.579" width="9.05263" height="8.34483" transform="rotate(-90 70.7591 184.579)" fill="#004BAE"/>
<rect x="70.7591" y="166.474" width="9.05263" height="8.34483" transform="rotate(-90 70.7591 166.474)" fill="#004BAE"/>
<rect x="70.7591" y="148.368" width="9.05263" height="8.34483" transform="rotate(-90 70.7591 148.368)" fill="#004BAE"/>
<rect x="70.7591" y="130.263" width="9.05263" height="8.34483" transform="rotate(-90 70.7591 130.263)" fill="#004BAE"/>
<rect x="70.7591" y="112.158" width="9.05263" height="8.34483" transform="rotate(-90 70.7591 112.158)" fill="#004BAE"/>
<rect x="70.7591" y="94.0525" width="9.05263" height="8.34483" transform="rotate(-90 70.7591 94.0525)" fill="#004BAE"/>
<rect x="87.4484" y="257" width="9.05263" height="8.34483" transform="rotate(-90 87.4484 257)" fill="#004BAE"/>
<rect x="87.4484" y="238.895" width="9.05263" height="8.34483" transform="rotate(-90 87.4484 238.895)" fill="#004BAE"/>
<rect x="87.4484" y="220.789" width="9.05263" height="8.34483" transform="rotate(-90 87.4484 220.789)" fill="#004BAE"/>
<rect x="87.4484" y="202.684" width="9.05263" height="8.34483" transform="rotate(-90 87.4484 202.684)" fill="#004BAE"/>
<rect x="87.4484" y="184.579" width="9.05263" height="8.34483" transform="rotate(-90 87.4484 184.579)" fill="#004BAE"/>
<rect x="87.4484" y="166.474" width="9.05263" height="8.34483" transform="rotate(-90 87.4484 166.474)" fill="#004BAE"/>
<rect x="87.4484" y="148.368" width="9.05263" height="8.34483" transform="rotate(-90 87.4484 148.368)" fill="#004BAE"/>
<rect x="87.4484" y="130.263" width="9.05263" height="8.34483" transform="rotate(-90 87.4484 130.263)" fill="#004BAE"/>
<rect x="87.4484" y="112.158" width="9.05263" height="8.34483" transform="rotate(-90 87.4484 112.158)" fill="#004BAE"/>
<rect x="87.4484" y="94.0525" width="9.05263" height="8.34483" transform="rotate(-90 87.4484 94.0525)" fill="#004BAE"/>
<rect x="104.138" y="257" width="9.05263" height="8.34483" transform="rotate(-90 104.138 257)" fill="#004BAE"/>
<rect x="104.138" y="238.895" width="9.05263" height="8.34483" transform="rotate(-90 104.138 238.895)" fill="#004BAE"/>
<rect x="104.138" y="220.789" width="9.05263" height="8.34483" transform="rotate(-90 104.138 220.789)" fill="#004BAE"/>
<rect x="104.138" y="202.684" width="9.05263" height="8.34483" transform="rotate(-90 104.138 202.684)" fill="#004BAE"/>
<rect x="104.138" y="184.579" width="9.05263" height="8.34483" transform="rotate(-90 104.138 184.579)" fill="#004BAE"/>
<rect x="104.138" y="166.474" width="9.05263" height="8.34483" transform="rotate(-90 104.138 166.474)" fill="#004BAE"/>
<rect x="104.138" y="148.368" width="9.05263" height="8.34483" transform="rotate(-90 104.138 148.368)" fill="#004BAE"/>
<rect x="104.138" y="130.263" width="9.05263" height="8.34483" transform="rotate(-90 104.138 130.263)" fill="#004BAE"/>
<rect x="104.138" y="112.158" width="9.05263" height="8.34483" transform="rotate(-90 104.138 112.158)" fill="#004BAE"/>
<rect x="104.138" y="94.0525" width="9.05263" height="8.34483" transform="rotate(-90 104.138 94.0525)" fill="#004BAE"/>
<rect x="120.828" y="257" width="9.05263" height="8.34483" transform="rotate(-90 120.828 257)" fill="#004BAE"/>
<rect x="120.828" y="238.895" width="9.05263" height="8.34483" transform="rotate(-90 120.828 238.895)" fill="#004BAE"/>
<rect x="120.828" y="220.789" width="9.05263" height="8.34483" transform="rotate(-90 120.828 220.789)" fill="#004BAE"/>
<rect x="120.828" y="202.684" width="9.05263" height="8.34483" transform="rotate(-90 120.828 202.684)" fill="#004BAE"/>
<rect x="120.828" y="184.579" width="9.05263" height="8.34483" transform="rotate(-90 120.828 184.579)" fill="#004BAE"/>
<rect x="120.828" y="166.474" width="9.05263" height="8.34483" transform="rotate(-90 120.828 166.474)" fill="#004BAE"/>
<rect x="120.828" y="148.368" width="9.05263" height="8.34483" transform="rotate(-90 120.828 148.368)" fill="#004BAE"/>
<rect x="120.828" y="130.263" width="9.05263" height="8.34483" transform="rotate(-90 120.828 130.263)" fill="#004BAE"/>
<rect x="120.828" y="112.158" width="9.05263" height="8.34483" transform="rotate(-90 120.828 112.158)" fill="#004BAE"/>
<rect x="120.828" y="94.0525" width="9.05263" height="8.34483" transform="rotate(-90 120.828 94.0525)" fill="#004BAE"/>
<rect x="137.517" y="257" width="9.05263" height="8.34483" transform="rotate(-90 137.517 257)" fill="#004BAE"/>
<rect x="137.517" y="238.895" width="9.05263" height="8.34483" transform="rotate(-90 137.517 238.895)" fill="#004BAE"/>
<rect x="137.517" y="220.789" width="9.05263" height="8.34483" transform="rotate(-90 137.517 220.789)" fill="#004BAE"/>
<rect x="137.517" y="202.684" width="9.05263" height="8.34483" transform="rotate(-90 137.517 202.684)" fill="#004BAE"/>
<rect x="137.517" y="184.579" width="9.05263" height="8.34483" transform="rotate(-90 137.517 184.579)" fill="#004BAE"/>
<rect x="137.517" y="166.474" width="9.05263" height="8.34483" transform="rotate(-90 137.517 166.474)" fill="#004BAE"/>
<rect x="137.517" y="148.368" width="9.05263" height="8.34483" transform="rotate(-90 137.517 148.368)" fill="#004BAE"/>
<rect x="137.517" y="130.263" width="9.05263" height="8.34483" transform="rotate(-90 137.517 130.263)" fill="#004BAE"/>
<rect x="137.517" y="112.158" width="9.05263" height="8.34483" transform="rotate(-90 137.517 112.158)" fill="#004BAE"/>
<rect x="137.517" y="94.0525" width="9.05263" height="8.34483" transform="rotate(-90 137.517 94.0525)" fill="#004BAE"/>
<rect x="154.207" y="257" width="9.05263" height="8.34483" transform="rotate(-90 154.207 257)" fill="#004BAE"/>
<rect x="154.207" y="238.895" width="9.05263" height="8.34483" transform="rotate(-90 154.207 238.895)" fill="#004BAE"/>
<rect x="154.207" y="220.789" width="9.05263" height="8.34483" transform="rotate(-90 154.207 220.789)" fill="#004BAE"/>
<rect x="154.207" y="202.684" width="9.05263" height="8.34483" transform="rotate(-90 154.207 202.684)" fill="#004BAE"/>
<rect x="154.207" y="184.579" width="9.05263" height="8.34483" transform="rotate(-90 154.207 184.579)" fill="#004BAE"/>
<rect x="154.207" y="166.474" width="9.05263" height="8.34483" transform="rotate(-90 154.207 166.474)" fill="#004BAE"/>
<rect x="154.207" y="148.368" width="9.05263" height="8.34483" transform="rotate(-90 154.207 148.368)" fill="#004BAE"/>
<rect x="154.207" y="130.263" width="9.05263" height="8.34483" transform="rotate(-90 154.207 130.263)" fill="#004BAE"/>
<rect x="154.207" y="112.158" width="9.05263" height="8.34483" transform="rotate(-90 154.207 112.158)" fill="#004BAE"/>
<rect x="154.207" y="94.0525" width="9.05263" height="8.34483" transform="rotate(-90 154.207 94.0525)" fill="#004BAE"/>
<rect x="170.898" y="257" width="9.05263" height="8.34483" transform="rotate(-90 170.898 257)" fill="#004BAE"/>
<rect x="170.898" y="238.895" width="9.05263" height="8.34483" transform="rotate(-90 170.898 238.895)" fill="#004BAE"/>
<rect x="170.898" y="220.789" width="9.05263" height="8.34483" transform="rotate(-90 170.898 220.789)" fill="#004BAE"/>
<rect x="170.898" y="202.684" width="9.05263" height="8.34483" transform="rotate(-90 170.898 202.684)" fill="#004BAE"/>
<rect x="170.898" y="184.579" width="9.05263" height="8.34483" transform="rotate(-90 170.898 184.579)" fill="#004BAE"/>
<rect x="170.898" y="166.474" width="9.05263" height="8.34483" transform="rotate(-90 170.898 166.474)" fill="#004BAE"/>
<rect x="170.898" y="148.368" width="9.05263" height="8.34483" transform="rotate(-90 170.898 148.368)" fill="#004BAE"/>
<rect x="170.898" y="130.263" width="9.05263" height="8.34483" transform="rotate(-90 170.898 130.263)" fill="#004BAE"/>
<rect x="170.898" y="112.158" width="9.05263" height="8.34483" transform="rotate(-90 170.898 112.158)" fill="#004BAE"/>
<rect x="170.898" y="94.0525" width="9.05263" height="8.34483" transform="rotate(-90 170.898 94.0525)" fill="#004BAE"/>
<rect x="187.586" y="257" width="9.05263" height="8.34483" transform="rotate(-90 187.586 257)" fill="#004BAE"/>
<rect x="187.586" y="238.895" width="9.05263" height="8.34483" transform="rotate(-90 187.586 238.895)" fill="#004BAE"/>
<rect x="187.586" y="220.789" width="9.05263" height="8.34483" transform="rotate(-90 187.586 220.789)" fill="#004BAE"/>
<rect x="187.586" y="202.684" width="9.05263" height="8.34483" transform="rotate(-90 187.586 202.684)" fill="#004BAE"/>
<rect x="187.586" y="184.579" width="9.05263" height="8.34483" transform="rotate(-90 187.586 184.579)" fill="#004BAE"/>
<rect x="187.586" y="166.474" width="9.05263" height="8.34483" transform="rotate(-90 187.586 166.474)" fill="#004BAE"/>
<rect x="187.586" y="148.368" width="9.05263" height="8.34483" transform="rotate(-90 187.586 148.368)" fill="#004BAE"/>
<rect x="187.586" y="130.263" width="9.05263" height="8.34483" transform="rotate(-90 187.586 130.263)" fill="#004BAE"/>
<rect x="187.586" y="112.158" width="9.05263" height="8.34483" transform="rotate(-90 187.586 112.158)" fill="#004BAE"/>
<rect x="187.586" y="94.0525" width="9.05263" height="8.34483" transform="rotate(-90 187.586 94.0525)" fill="#004BAE"/>
<rect x="204.276" y="257" width="9.05263" height="8.34483" transform="rotate(-90 204.276 257)" fill="#004BAE"/>
<rect x="204.276" y="238.895" width="9.05263" height="8.34483" transform="rotate(-90 204.276 238.895)" fill="#004BAE"/>
<rect x="204.276" y="220.789" width="9.05263" height="8.34483" transform="rotate(-90 204.276 220.789)" fill="#004BAE"/>
<rect x="204.276" y="202.684" width="9.05263" height="8.34483" transform="rotate(-90 204.276 202.684)" fill="#004BAE"/>
<rect x="204.276" y="184.579" width="9.05263" height="8.34483" transform="rotate(-90 204.276 184.579)" fill="#004BAE"/>
<rect x="204.276" y="166.474" width="9.05263" height="8.34483" transform="rotate(-90 204.276 166.474)" fill="#004BAE"/>
<rect x="204.276" y="148.368" width="9.05263" height="8.34483" transform="rotate(-90 204.276 148.368)" fill="#004BAE"/>
<rect x="204.276" y="130.263" width="9.05263" height="8.34483" transform="rotate(-90 204.276 130.263)" fill="#004BAE"/>
<rect x="204.276" y="112.158" width="9.05263" height="8.34483" transform="rotate(-90 204.276 112.158)" fill="#004BAE"/>
<rect x="204.276" y="94.0525" width="9.05263" height="8.34483" transform="rotate(-90 204.276 94.0525)" fill="#004BAE"/>
<rect x="220.966" y="257" width="9.05263" height="8.34483" transform="rotate(-90 220.966 257)" fill="#004BAE"/>
<rect x="220.966" y="238.895" width="9.05263" height="8.34483" transform="rotate(-90 220.966 238.895)" fill="#004BAE"/>
<rect x="220.966" y="220.789" width="9.05263" height="8.34483" transform="rotate(-90 220.966 220.789)" fill="#004BAE"/>
<rect x="220.966" y="202.684" width="9.05263" height="8.34483" transform="rotate(-90 220.966 202.684)" fill="#004BAE"/>
<rect x="220.966" y="184.579" width="9.05263" height="8.34483" transform="rotate(-90 220.966 184.579)" fill="#004BAE"/>
<rect x="220.966" y="166.474" width="9.05263" height="8.34483" transform="rotate(-90 220.966 166.474)" fill="#004BAE"/>
<rect x="220.966" y="148.368" width="9.05263" height="8.34483" transform="rotate(-90 220.966 148.368)" fill="#004BAE"/>
<rect x="220.966" y="130.263" width="9.05263" height="8.34483" transform="rotate(-90 220.966 130.263)" fill="#004BAE"/>
<rect x="220.966" y="112.158" width="9.05263" height="8.34483" transform="rotate(-90 220.966 112.158)" fill="#004BAE"/>
<rect x="220.966" y="94.0525" width="9.05263" height="8.34483" transform="rotate(-90 220.966 94.0525)" fill="#004BAE"/>
<rect x="237.655" y="257" width="9.05263" height="8.34483" transform="rotate(-90 237.655 257)" fill="#004BAE"/>
<rect x="237.655" y="238.895" width="9.05263" height="8.34483" transform="rotate(-90 237.655 238.895)" fill="#004BAE"/>
<rect x="237.655" y="220.789" width="9.05263" height="8.34483" transform="rotate(-90 237.655 220.789)" fill="#004BAE"/>
<rect x="237.655" y="202.684" width="9.05263" height="8.34483" transform="rotate(-90 237.655 202.684)" fill="#004BAE"/>
<rect x="237.655" y="184.579" width="9.05263" height="8.34483" transform="rotate(-90 237.655 184.579)" fill="#004BAE"/>
<rect x="237.655" y="166.474" width="9.05263" height="8.34483" transform="rotate(-90 237.655 166.474)" fill="#004BAE"/>
<rect x="237.655" y="148.368" width="9.05263" height="8.34483" transform="rotate(-90 237.655 148.368)" fill="#004BAE"/>
<rect x="237.655" y="130.263" width="9.05263" height="8.34483" transform="rotate(-90 237.655 130.263)" fill="#004BAE"/>
<rect x="237.655" y="112.158" width="9.05263" height="8.34483" transform="rotate(-90 237.655 112.158)" fill="#004BAE"/>
<rect x="237.655" y="94.0525" width="9.05263" height="8.34483" transform="rotate(-90 237.655 94.0525)" fill="#004BAE"/>
<line x1="11.7652" y1="596.074" x2="81.5608" y2="591.087" stroke="#004BAE"/>
<line x1="10.7535" y1="581.921" x2="80.5491" y2="576.933" stroke="#004BAE"/>
<line x1="9.74281" y1="567.767" x2="79.5384" y2="562.78" stroke="#004BAE"/>
<line x1="8.73115" y1="553.613" x2="78.5267" y2="548.626" stroke="#004BAE"/>
<line x1="7.71955" y1="539.459" x2="77.5151" y2="534.472" stroke="#004BAE"/>
<line x1="6.70881" y1="525.305" x2="76.5044" y2="520.318" stroke="#004BAE"/>
<line x1="5.69715" y1="511.151" x2="75.4927" y2="506.164" stroke="#004BAE"/>
<line x1="4.68549" y1="496.997" x2="74.4811" y2="492.01" stroke="#004BAE"/>
<line x1="3.67426" y1="482.844" x2="73.4698" y2="477.857" stroke="#004BAE"/>
<line x1="2.66322" y1="468.69" x2="72.4588" y2="463.702" stroke="#004BAE"/>
<line x1="98.4315" y1="570.974" x2="168.227" y2="565.986" stroke="#004BAE"/>
<line x1="97.4198" y1="556.82" x2="167.215" y2="551.833" stroke="#004BAE"/>
<line x1="96.4082" y1="542.666" x2="166.204" y2="537.679" stroke="#004BAE"/>
<line x1="95.397" y1="528.512" x2="165.193" y2="523.525" stroke="#004BAE"/>
<line x1="94.3858" y1="514.358" x2="164.181" y2="509.371" stroke="#004BAE"/>
<line x1="93.3742" y1="500.205" x2="163.17" y2="495.218" stroke="#004BAE"/>
<line x1="92.3625" y1="486.051" x2="162.158" y2="481.064" stroke="#004BAE"/>
<line x1="91.3514" y1="471.897" x2="161.147" y2="466.909" stroke="#004BAE"/>
<line x1="90.3402" y1="457.743" x2="160.136" y2="452.756" stroke="#004BAE"/>
<line x1="89.3284" y1="443.589" x2="159.124" y2="438.602" stroke="#004BAE"/>
<line x1="185.095" y1="545.873" x2="254.89" y2="540.886" stroke="#004BAE"/>
<line x1="184.084" y1="531.719" x2="253.879" y2="526.732" stroke="#004BAE"/>
<line x1="183.073" y1="517.565" x2="252.869" y2="512.578" stroke="#004BAE"/>
<line x1="182.062" y1="503.411" x2="251.857" y2="498.424" stroke="#004BAE"/>
<line x1="181.05" y1="489.258" x2="250.846" y2="484.271" stroke="#004BAE"/>
<line x1="180.039" y1="475.104" x2="249.835" y2="470.117" stroke="#004BAE"/>
<line x1="179.027" y1="460.95" x2="248.823" y2="455.962" stroke="#004BAE"/>
<line x1="178.015" y1="446.796" x2="247.811" y2="441.809" stroke="#004BAE"/>
<line x1="177.004" y1="432.642" x2="246.8" y2="427.655" stroke="#004BAE"/>
<line x1="175.994" y1="418.488" x2="245.789" y2="413.501" stroke="#004BAE"/>
<path d="M1025.2 106.382C1025.2 106.382 1045.49 128.552 1133.76 111.778C1222.02 95.0044 1242.31 117.175 1242.31 117.175" stroke="#00357A" stroke-width="3"/>
<path d="M1024.27 125.146C1024.27 125.146 1044.56 147.316 1132.82 130.542C1221.08 113.768 1241.38 135.938 1241.38 135.938" stroke="#00357A" stroke-width="3"/>
<path d="M1023.33 143.909C1023.33 143.909 1043.63 166.079 1131.89 149.306C1220.15 132.532 1240.45 154.702 1240.45 154.702" stroke="#00357A" stroke-width="3"/>
<path d="M1022.4 162.673C1022.4 162.673 1042.7 184.843 1130.96 168.069C1219.22 151.295 1239.51 173.466 1239.51 173.466" stroke="#00357A" stroke-width="3"/>
<path d="M1021.47 181.437C1021.47 181.437 1041.76 203.607 1130.02 186.833C1218.29 170.059 1238.58 192.229 1238.58 192.229" stroke="#00357A" stroke-width="3"/>
<defs>
<linearGradient id="paint0_linear_2_266" x1="35.769" y1="-1.19708e-05" x2="687.617" y2="1004.5" gradientUnits="userSpaceOnUse">
<stop stop-color="#0061E0"/>
<stop offset="1" stop-color="#001F47"/>
</linearGradient>
</defs>
</svg>
