<svg width="224" height="105" viewBox="0 0 224 105" fill="none" xmlns="http://www.w3.org/2000/svg">
<path d="M5.1972 9.38183C5.1972 9.38183 25.4934 31.552 113.754 14.7782C202.015 -1.99563 222.312 20.1746 222.312 20.1746" stroke="#00357A" stroke-width="3"/>
<path d="M4.26459 28.1455C4.26459 28.1455 24.5608 50.3157 112.822 33.5419C201.083 16.768 221.379 38.9382 221.379 38.9382" stroke="#00357A" stroke-width="3"/>
<path d="M3.33148 46.9092C3.33148 46.9092 23.6277 69.0794 111.889 52.3055C200.15 35.5317 220.446 57.7019 220.446 57.7019" stroke="#00357A" stroke-width="3"/>
<path d="M2.39935 65.6728C2.39935 65.6728 22.6955 87.8431 110.957 71.0692C199.218 54.2954 219.514 76.4656 219.514 76.4656" stroke="#00357A" stroke-width="3"/>
<path d="M1.46674 84.4366C1.46674 84.4366 21.7629 106.607 110.024 89.8329C198.285 73.0591 218.581 95.2293 218.581 95.2293" stroke="#00357A" stroke-width="3"/>
</svg>
