<svg width="208" height="239" viewBox="0 0 208 239" fill="none" xmlns="http://www.w3.org/2000/svg">
<line x1="-9.88899" y1="195.856" x2="55.0048" y2="160.431" stroke="#004BAE"/>
<line x1="-14.6036" y1="187.219" x2="50.2902" y2="151.795" stroke="#004BAE"/>
<line x1="-19.3175" y1="178.582" x2="45.5763" y2="143.158" stroke="#004BAE"/>
<line x1="-24.0328" y1="169.946" x2="40.861" y2="134.521" stroke="#004BAE"/>
<line x1="-28.7476" y1="161.309" x2="36.1462" y2="125.885" stroke="#004BAE"/>
<line x1="-33.4615" y1="152.672" x2="31.4323" y2="117.248" stroke="#004BAE"/>
<line x1="-38.1766" y1="144.036" x2="26.7172" y2="108.611" stroke="#004BAE"/>
<line x1="-42.8914" y1="135.399" x2="22.0024" y2="99.9744" stroke="#004BAE"/>
<line x1="-47.6058" y1="126.763" x2="17.288" y2="91.338" stroke="#004BAE"/>
<line x1="-52.3206" y1="118.125" x2="12.5732" y2="82.7007" stroke="#004BAE"/>
<line x1="66.0326" y1="155.227" x2="130.926" y2="119.802" stroke="#004BAE"/>
<line x1="61.3176" y1="146.591" x2="126.211" y2="111.166" stroke="#004BAE"/>
<line x1="56.6027" y1="137.954" x2="121.496" y2="102.529" stroke="#004BAE"/>
<line x1="51.8881" y1="129.317" x2="116.782" y2="93.8923" stroke="#004BAE"/>
<line x1="47.1735" y1="120.68" x2="112.067" y2="85.2556" stroke="#004BAE"/>
<line x1="42.4592" y1="112.044" x2="107.353" y2="76.6193" stroke="#004BAE"/>
<line x1="37.7441" y1="103.407" x2="102.638" y2="67.9826" stroke="#004BAE"/>
<line x1="33.0295" y1="94.7702" x2="97.9233" y2="59.3456" stroke="#004BAE"/>
<line x1="28.3149" y1="86.1336" x2="93.2087" y2="50.709" stroke="#004BAE"/>
<line x1="23.6" y1="77.4972" x2="88.4938" y2="42.0725" stroke="#004BAE"/>
<line x1="141.947" y1="114.6" x2="206.841" y2="79.1754" stroke="#004BAE"/>
<line x1="137.233" y1="105.963" x2="202.127" y2="70.5386" stroke="#004BAE"/>
<line x1="132.52" y1="97.3259" x2="197.414" y2="61.9013" stroke="#004BAE"/>
<line x1="127.805" y1="88.6892" x2="192.699" y2="53.2645" stroke="#004BAE"/>
<line x1="123.09" y1="80.0531" x2="187.984" y2="44.6284" stroke="#004BAE"/>
<line x1="118.376" y1="71.416" x2="183.269" y2="35.9913" stroke="#004BAE"/>
<line x1="113.661" y1="62.7793" x2="178.554" y2="27.3546" stroke="#004BAE"/>
<line x1="108.945" y1="54.143" x2="173.839" y2="18.7184" stroke="#004BAE"/>
<line x1="104.231" y1="45.5063" x2="169.125" y2="10.0817" stroke="#004BAE"/>
<line x1="99.5165" y1="36.8692" x2="164.41" y2="1.4446" stroke="#004BAE"/>
</svg>
