<svg width="110" height="110" viewBox="0 0 110 110" fill="none" xmlns="http://www.w3.org/2000/svg">
<circle cx="55" cy="55" r="55" fill="#3AB7FE"/>
<path d="M55 0C45.9552 -1.07858e-07 37.05 2.23064 29.0732 6.49433C21.0964 10.758 14.2942 16.9232 9.26917 24.4436C4.24415 31.9641 1.15139 40.6078 0.26484 49.6091C-0.621706 58.6103 0.725329 67.6913 4.18662 76.0476C7.64792 84.4039 13.1166 91.7776 20.1084 97.5156C27.1001 103.254 35.399 107.179 44.27 108.943C53.141 110.708 62.3103 110.257 70.9657 107.632C79.621 105.006 87.4952 100.287 93.8909 93.8909L55 55V0Z" fill="#004BAE"/>
<path d="M81.864 33C81.7707 33 81.6913 32.972 81.626 32.916C81.57 32.8507 81.542 32.7713 81.542 32.678V24.838L79.218 26.63C79.1433 26.686 79.064 26.7093 78.98 26.7C78.896 26.6907 78.826 26.6487 78.77 26.574L78.406 26.112C78.35 26.028 78.3267 25.944 78.336 25.86C78.3547 25.776 78.4013 25.706 78.476 25.65L81.528 23.298C81.5933 23.2513 81.654 23.2233 81.71 23.214C81.766 23.2047 81.8267 23.2 81.892 23.2H82.606C82.6993 23.2 82.774 23.2327 82.83 23.298C82.886 23.354 82.914 23.4287 82.914 23.522V32.678C82.914 32.7713 82.886 32.8507 82.83 32.916C82.774 32.972 82.6993 33 82.606 33H81.864Z" fill="#FAFAFA"/>
<path d="M60.76 50.28C60.68 50.28 60.612 50.252 60.556 50.196C60.508 50.148 60.484 50.084 60.484 50.004V42.036C60.484 41.956 60.508 41.892 60.556 41.844C60.612 41.788 60.68 41.76 60.76 41.76H61.312C61.392 41.76 61.456 41.788 61.504 41.844C61.56 41.892 61.588 41.956 61.588 42.036V42.564C61.78 42.3 62.036 42.08 62.356 41.904C62.676 41.728 63.076 41.64 63.556 41.64C64.004 41.64 64.384 41.716 64.696 41.868C65.016 42.02 65.276 42.228 65.476 42.492C65.684 42.756 65.84 43.056 65.944 43.392C66.048 43.728 66.104 44.088 66.112 44.472C66.12 44.6 66.124 44.736 66.124 44.88C66.124 45.024 66.12 45.16 66.112 45.288C66.104 45.664 66.048 46.024 65.944 46.368C65.84 46.704 65.684 47.004 65.476 47.268C65.276 47.524 65.016 47.732 64.696 47.892C64.384 48.044 64.004 48.12 63.556 48.12C63.092 48.12 62.7 48.036 62.38 47.868C62.068 47.692 61.812 47.476 61.612 47.22V50.004C61.612 50.084 61.588 50.148 61.54 50.196C61.492 50.252 61.424 50.28 61.336 50.28H60.76ZM63.304 47.148C63.72 47.148 64.044 47.06 64.276 46.884C64.516 46.7 64.688 46.464 64.792 46.176C64.896 45.88 64.956 45.564 64.972 45.228C64.98 44.996 64.98 44.764 64.972 44.532C64.956 44.196 64.896 43.884 64.792 43.596C64.688 43.3 64.516 43.064 64.276 42.888C64.044 42.704 63.72 42.612 63.304 42.612C62.912 42.612 62.592 42.704 62.344 42.888C62.104 43.072 61.924 43.308 61.804 43.596C61.692 43.876 61.628 44.164 61.612 44.46C61.604 44.588 61.6 44.74 61.6 44.916C61.6 45.092 61.604 45.248 61.612 45.384C61.62 45.664 61.684 45.94 61.804 46.212C61.932 46.484 62.12 46.708 62.368 46.884C62.616 47.06 62.928 47.148 63.304 47.148ZM70.1044 48.12C69.2804 48.12 68.6244 47.868 68.1364 47.364C67.6484 46.852 67.3804 46.156 67.3324 45.276C67.3244 45.172 67.3204 45.04 67.3204 44.88C67.3204 44.712 67.3244 44.576 67.3324 44.472C67.3644 43.904 67.4964 43.408 67.7284 42.984C67.9604 42.552 68.2764 42.22 68.6764 41.988C69.0844 41.756 69.5604 41.64 70.1044 41.64C70.7124 41.64 71.2204 41.768 71.6284 42.024C72.0444 42.28 72.3604 42.644 72.5764 43.116C72.7924 43.588 72.9004 44.14 72.9004 44.772V44.976C72.9004 45.064 72.8724 45.132 72.8164 45.18C72.7684 45.228 72.7044 45.252 72.6244 45.252H68.4724C68.4724 45.26 68.4724 45.276 68.4724 45.3C68.4724 45.324 68.4724 45.344 68.4724 45.36C68.4884 45.688 68.5604 45.996 68.6884 46.284C68.8164 46.564 69.0004 46.792 69.2404 46.968C69.4804 47.144 69.7684 47.232 70.1044 47.232C70.3924 47.232 70.6324 47.188 70.8244 47.1C71.0164 47.012 71.1724 46.916 71.2924 46.812C71.4124 46.7 71.4924 46.616 71.5324 46.56C71.6044 46.456 71.6604 46.396 71.7004 46.38C71.7404 46.356 71.8044 46.344 71.8924 46.344H72.4684C72.5484 46.344 72.6124 46.368 72.6604 46.416C72.7164 46.456 72.7404 46.516 72.7324 46.596C72.7244 46.716 72.6604 46.864 72.5404 47.04C72.4204 47.208 72.2484 47.376 72.0244 47.544C71.8004 47.712 71.5284 47.852 71.2084 47.964C70.8884 48.068 70.5204 48.12 70.1044 48.12ZM68.4724 44.424H71.7604V44.388C71.7604 44.028 71.6924 43.708 71.5564 43.428C71.4284 43.148 71.2404 42.928 70.9924 42.768C70.7444 42.6 70.4484 42.516 70.1044 42.516C69.7604 42.516 69.4644 42.6 69.2164 42.768C68.9764 42.928 68.7924 43.148 68.6644 43.428C68.5364 43.708 68.4724 44.028 68.4724 44.388V44.424ZM74.6113 48C74.5313 48 74.4633 47.976 74.4073 47.928C74.3593 47.872 74.3353 47.804 74.3353 47.724V42.048C74.3353 41.968 74.3593 41.9 74.4073 41.844C74.4633 41.788 74.5313 41.76 74.6113 41.76H75.1633C75.2433 41.76 75.3113 41.788 75.3673 41.844C75.4233 41.9 75.4513 41.968 75.4513 42.048V42.576C75.6113 42.304 75.8313 42.1 76.1113 41.964C76.3913 41.828 76.7273 41.76 77.1193 41.76H77.5993C77.6793 41.76 77.7433 41.788 77.7913 41.844C77.8393 41.892 77.8633 41.956 77.8633 42.036V42.528C77.8633 42.608 77.8393 42.672 77.7913 42.72C77.7433 42.768 77.6793 42.792 77.5993 42.792H76.8793C76.4473 42.792 76.1073 42.92 75.8593 43.176C75.6113 43.424 75.4873 43.764 75.4873 44.196V47.724C75.4873 47.804 75.4593 47.872 75.4033 47.928C75.3473 47.976 75.2793 48 75.1993 48H74.6113ZM81.2607 48.12C80.4367 48.12 79.7807 47.868 79.2927 47.364C78.8047 46.852 78.5367 46.156 78.4887 45.276C78.4807 45.172 78.4767 45.04 78.4767 44.88C78.4767 44.712 78.4807 44.576 78.4887 44.472C78.5207 43.904 78.6527 43.408 78.8847 42.984C79.1167 42.552 79.4327 42.22 79.8327 41.988C80.2407 41.756 80.7167 41.64 81.2607 41.64C81.8687 41.64 82.3767 41.768 82.7847 42.024C83.2007 42.28 83.5167 42.644 83.7327 43.116C83.9487 43.588 84.0567 44.14 84.0567 44.772V44.976C84.0567 45.064 84.0287 45.132 83.9727 45.18C83.9247 45.228 83.8607 45.252 83.7807 45.252H79.6287C79.6287 45.26 79.6287 45.276 79.6287 45.3C79.6287 45.324 79.6287 45.344 79.6287 45.36C79.6447 45.688 79.7167 45.996 79.8447 46.284C79.9727 46.564 80.1567 46.792 80.3967 46.968C80.6367 47.144 80.9247 47.232 81.2607 47.232C81.5487 47.232 81.7887 47.188 81.9807 47.1C82.1727 47.012 82.3287 46.916 82.4487 46.812C82.5687 46.7 82.6487 46.616 82.6887 46.56C82.7607 46.456 82.8167 46.396 82.8567 46.38C82.8967 46.356 82.9607 46.344 83.0487 46.344H83.6247C83.7047 46.344 83.7687 46.368 83.8167 46.416C83.8727 46.456 83.8967 46.516 83.8887 46.596C83.8807 46.716 83.8167 46.864 83.6967 47.04C83.5767 47.208 83.4047 47.376 83.1807 47.544C82.9567 47.712 82.6847 47.852 82.3647 47.964C82.0447 48.068 81.6767 48.12 81.2607 48.12ZM79.6287 44.424H82.9167V44.388C82.9167 44.028 82.8487 43.708 82.7127 43.428C82.5847 43.148 82.3967 42.928 82.1487 42.768C81.9007 42.6 81.6047 42.516 81.2607 42.516C80.9167 42.516 80.6207 42.6 80.3727 42.768C80.1327 42.928 79.9487 43.148 79.8207 43.428C79.6927 43.708 79.6287 44.028 79.6287 44.388V44.424ZM85.7675 48C85.6875 48 85.6195 47.976 85.5635 47.928C85.5155 47.872 85.4915 47.804 85.4915 47.724V42.036C85.4915 41.956 85.5155 41.892 85.5635 41.844C85.6195 41.788 85.6875 41.76 85.7675 41.76H86.3075C86.3875 41.76 86.4515 41.788 86.4995 41.844C86.5555 41.892 86.5835 41.956 86.5835 42.036V42.456C86.7675 42.208 86.9995 42.012 87.2795 41.868C87.5595 41.716 87.8955 41.64 88.2875 41.64C89.1915 41.632 89.8315 42 90.2075 42.744C90.3915 42.408 90.6595 42.14 91.0115 41.94C91.3635 41.74 91.7635 41.64 92.2115 41.64C92.6275 41.64 93.0035 41.736 93.3395 41.928C93.6835 42.12 93.9515 42.412 94.1435 42.804C94.3435 43.188 94.4435 43.672 94.4435 44.256V47.724C94.4435 47.804 94.4155 47.872 94.3595 47.928C94.3115 47.976 94.2475 48 94.1675 48H93.6035C93.5235 48 93.4555 47.976 93.3995 47.928C93.3515 47.872 93.3275 47.804 93.3275 47.724V44.364C93.3275 43.916 93.2635 43.564 93.1355 43.308C93.0075 43.052 92.8355 42.872 92.6195 42.768C92.4035 42.664 92.1675 42.612 91.9115 42.612C91.7035 42.612 91.4915 42.664 91.2755 42.768C91.0595 42.872 90.8795 43.052 90.7355 43.308C90.5995 43.564 90.5315 43.916 90.5315 44.364V47.724C90.5315 47.804 90.5035 47.872 90.4475 47.928C90.3995 47.976 90.3355 48 90.2555 48H89.6915C89.6115 48 89.5435 47.976 89.4875 47.928C89.4395 47.872 89.4155 47.804 89.4155 47.724V44.364C89.4155 43.916 89.3475 43.564 89.2115 43.308C89.0755 43.052 88.8995 42.872 88.6835 42.768C88.4675 42.664 88.2395 42.612 87.9995 42.612C87.7915 42.612 87.5795 42.664 87.3635 42.768C87.1475 42.872 86.9675 43.052 86.8235 43.308C86.6875 43.564 86.6195 43.912 86.6195 44.352V47.724C86.6195 47.804 86.5915 47.872 86.5355 47.928C86.4875 47.976 86.4235 48 86.3435 48H85.7675ZM96.4436 50.28C96.3636 50.28 96.2956 50.252 96.2396 50.196C96.1916 50.148 96.1676 50.084 96.1676 50.004V42.036C96.1676 41.956 96.1916 41.892 96.2396 41.844C96.2956 41.788 96.3636 41.76 96.4436 41.76H96.9956C97.0756 41.76 97.1396 41.788 97.1876 41.844C97.2436 41.892 97.2716 41.956 97.2716 42.036V42.564C97.4636 42.3 97.7196 42.08 98.0396 41.904C98.3596 41.728 98.7596 41.64 99.2396 41.64C99.6876 41.64 100.068 41.716 100.38 41.868C100.7 42.02 100.96 42.228 101.16 42.492C101.368 42.756 101.524 43.056 101.628 43.392C101.732 43.728 101.788 44.088 101.796 44.472C101.804 44.6 101.808 44.736 101.808 44.88C101.808 45.024 101.804 45.16 101.796 45.288C101.788 45.664 101.732 46.024 101.628 46.368C101.524 46.704 101.368 47.004 101.16 47.268C100.96 47.524 100.7 47.732 100.38 47.892C100.068 48.044 99.6876 48.12 99.2396 48.12C98.7756 48.12 98.3836 48.036 98.0636 47.868C97.7516 47.692 97.4956 47.476 97.2956 47.22V50.004C97.2956 50.084 97.2716 50.148 97.2236 50.196C97.1756 50.252 97.1076 50.28 97.0196 50.28H96.4436ZM98.9876 47.148C99.4036 47.148 99.7276 47.06 99.9596 46.884C100.2 46.7 100.372 46.464 100.476 46.176C100.58 45.88 100.64 45.564 100.656 45.228C100.664 44.996 100.664 44.764 100.656 44.532C100.64 44.196 100.58 43.884 100.476 43.596C100.372 43.3 100.2 43.064 99.9596 42.888C99.7276 42.704 99.4036 42.612 98.9876 42.612C98.5956 42.612 98.2756 42.704 98.0276 42.888C97.7876 43.072 97.6076 43.308 97.4876 43.596C97.3756 43.876 97.3116 44.164 97.2956 44.46C97.2876 44.588 97.2836 44.74 97.2836 44.916C97.2836 45.092 97.2876 45.248 97.2956 45.384C97.3036 45.664 97.3676 45.94 97.4876 46.212C97.6156 46.484 97.8036 46.708 98.0516 46.884C98.2996 47.06 98.6116 47.148 98.9876 47.148ZM73.6574 62.12C73.1454 62.12 72.7094 62.008 72.3494 61.784C71.9974 61.552 71.7294 61.232 71.5454 60.824C71.3614 60.416 71.2694 59.948 71.2694 59.42V56.036C71.2694 55.956 71.2934 55.892 71.3414 55.844C71.3974 55.788 71.4654 55.76 71.5454 55.76H72.1454C72.2254 55.76 72.2894 55.788 72.3374 55.844C72.3934 55.892 72.4214 55.956 72.4214 56.036V59.36C72.4214 60.552 72.9414 61.148 73.9814 61.148C74.4774 61.148 74.8734 60.992 75.1694 60.68C75.4734 60.36 75.6254 59.92 75.6254 59.36V56.036C75.6254 55.956 75.6494 55.892 75.6974 55.844C75.7534 55.788 75.8214 55.76 75.9014 55.76H76.4894C76.5774 55.76 76.6454 55.788 76.6934 55.844C76.7414 55.892 76.7654 55.956 76.7654 56.036V61.724C76.7654 61.804 76.7414 61.872 76.6934 61.928C76.6454 61.976 76.5774 62 76.4894 62H75.9374C75.8574 62 75.7894 61.976 75.7334 61.928C75.6854 61.872 75.6614 61.804 75.6614 61.724V61.196C75.4454 61.476 75.1814 61.7 74.8694 61.868C74.5654 62.036 74.1614 62.12 73.6574 62.12ZM80.2882 62.12C79.8882 62.12 79.5242 62.04 79.1962 61.88C78.8682 61.72 78.6042 61.504 78.4042 61.232C78.2042 60.96 78.1042 60.652 78.1042 60.308C78.1042 59.756 78.3282 59.316 78.7762 58.988C79.2242 58.66 79.8082 58.444 80.5282 58.34L82.3162 58.088V57.74C82.3162 57.356 82.2042 57.056 81.9802 56.84C81.7642 56.624 81.4082 56.516 80.9122 56.516C80.5522 56.516 80.2602 56.588 80.0362 56.732C79.8202 56.876 79.6682 57.06 79.5802 57.284C79.5322 57.404 79.4482 57.464 79.3282 57.464H78.7882C78.7002 57.464 78.6322 57.44 78.5842 57.392C78.5442 57.336 78.5242 57.272 78.5242 57.2C78.5242 57.08 78.5682 56.932 78.6562 56.756C78.7522 56.58 78.8962 56.408 79.0882 56.24C79.2802 56.072 79.5242 55.932 79.8202 55.82C80.1242 55.7 80.4922 55.64 80.9242 55.64C81.4042 55.64 81.8082 55.704 82.1362 55.832C82.4642 55.952 82.7202 56.116 82.9042 56.324C83.0962 56.532 83.2322 56.768 83.3122 57.032C83.4002 57.296 83.4442 57.564 83.4442 57.836V61.724C83.4442 61.804 83.4162 61.872 83.3602 61.928C83.3122 61.976 83.2482 62 83.1682 62H82.6162C82.5282 62 82.4602 61.976 82.4122 61.928C82.3642 61.872 82.3402 61.804 82.3402 61.724V61.208C82.2362 61.352 82.0962 61.496 81.9202 61.64C81.7442 61.776 81.5242 61.892 81.2602 61.988C80.9962 62.076 80.6722 62.12 80.2882 62.12ZM80.5402 61.22C80.8682 61.22 81.1682 61.152 81.4402 61.016C81.7122 60.872 81.9242 60.652 82.0762 60.356C82.2362 60.06 82.3162 59.688 82.3162 59.24V58.904L80.9242 59.108C80.3562 59.188 79.9282 59.324 79.6402 59.516C79.3522 59.7 79.2082 59.936 79.2082 60.224C79.2082 60.448 79.2722 60.636 79.4002 60.788C79.5362 60.932 79.7042 61.04 79.9042 61.112C80.1122 61.184 80.3242 61.22 80.5402 61.22ZM85.4453 62C85.3653 62 85.2973 61.976 85.2413 61.928C85.1933 61.872 85.1693 61.804 85.1693 61.724V56.036C85.1693 55.956 85.1933 55.892 85.2413 55.844C85.2973 55.788 85.3653 55.76 85.4453 55.76H86.0093C86.0893 55.76 86.1533 55.788 86.2013 55.844C86.2573 55.892 86.2853 55.956 86.2853 56.036V56.564C86.4933 56.292 86.7533 56.072 87.0653 55.904C87.3853 55.728 87.7933 55.64 88.2893 55.64C88.8093 55.64 89.2493 55.756 89.6093 55.988C89.9773 56.212 90.2533 56.528 90.4373 56.936C90.6213 57.336 90.7133 57.804 90.7133 58.34V61.724C90.7133 61.804 90.6893 61.872 90.6413 61.928C90.5933 61.976 90.5293 62 90.4492 62H89.8493C89.7693 62 89.7013 61.976 89.6453 61.928C89.5973 61.872 89.5733 61.804 89.5733 61.724V58.4C89.5733 57.84 89.4373 57.404 89.1653 57.092C88.8933 56.772 88.4933 56.612 87.9653 56.612C87.4693 56.612 87.0693 56.772 86.7653 57.092C86.4693 57.404 86.3213 57.84 86.3213 58.4V61.724C86.3213 61.804 86.2933 61.872 86.2373 61.928C86.1893 61.976 86.1253 62 86.0452 62H85.4453Z" fill="#FAFAFA"/>
<path d="M31.508 63C31.4147 63 31.3353 62.972 31.27 62.916C31.214 62.8507 31.186 62.7713 31.186 62.678V62.23C31.186 62.146 31.2093 62.0527 31.256 61.95C31.3027 61.8473 31.396 61.7353 31.536 61.614L34.504 58.646C34.98 58.2447 35.3533 57.904 35.624 57.624C35.904 57.3347 36.1 57.0593 36.212 56.798C36.3333 56.5367 36.394 56.266 36.394 55.986C36.394 55.454 36.2447 55.034 35.946 54.726C35.6473 54.4087 35.204 54.25 34.616 54.25C34.2427 54.25 33.9207 54.3293 33.65 54.488C33.3793 54.6373 33.1647 54.8473 33.006 55.118C32.8567 55.3793 32.7587 55.678 32.712 56.014C32.6933 56.1353 32.642 56.2193 32.558 56.266C32.4833 56.3127 32.4133 56.336 32.348 56.336H31.62C31.536 56.336 31.466 56.3127 31.41 56.266C31.354 56.21 31.326 56.1447 31.326 56.07C31.3353 55.7153 31.41 55.3607 31.55 55.006C31.69 54.642 31.8953 54.3153 32.166 54.026C32.446 53.7367 32.7867 53.5033 33.188 53.326C33.5987 53.1393 34.0747 53.046 34.616 53.046C35.3533 53.046 35.9553 53.1813 36.422 53.452C36.898 53.7133 37.248 54.0633 37.472 54.502C37.696 54.9407 37.808 55.4213 37.808 55.944C37.808 56.3547 37.738 56.7327 37.598 57.078C37.458 57.414 37.2527 57.7453 36.982 58.072C36.7207 58.3893 36.394 58.716 36.002 59.052L33.314 61.782H37.682C37.7847 61.782 37.864 61.81 37.92 61.866C37.9853 61.922 38.018 62.0013 38.018 62.104V62.678C38.018 62.7713 37.9853 62.8507 37.92 62.916C37.864 62.972 37.7847 63 37.682 63H31.508Z" fill="#F2F3F6"/>
<path d="M14.176 78C14.096 78 14.028 77.976 13.972 77.928C13.924 77.872 13.9 77.804 13.9 77.724V69.756C13.9 69.676 13.924 69.612 13.972 69.564C14.028 69.508 14.096 69.48 14.176 69.48H14.74C14.828 69.48 14.896 69.508 14.944 69.564C14.992 69.612 15.016 69.676 15.016 69.756V77.724C15.016 77.804 14.992 77.872 14.944 77.928C14.896 77.976 14.828 78 14.74 78H14.176ZM18.546 78.12C18.146 78.12 17.782 78.04 17.454 77.88C17.126 77.72 16.862 77.504 16.662 77.232C16.462 76.96 16.362 76.652 16.362 76.308C16.362 75.756 16.586 75.316 17.034 74.988C17.482 74.66 18.066 74.444 18.786 74.34L20.574 74.088V73.74C20.574 73.356 20.462 73.056 20.238 72.84C20.022 72.624 19.666 72.516 19.17 72.516C18.81 72.516 18.518 72.588 18.294 72.732C18.078 72.876 17.926 73.06 17.838 73.284C17.79 73.404 17.706 73.464 17.586 73.464H17.046C16.958 73.464 16.89 73.44 16.842 73.392C16.802 73.336 16.782 73.272 16.782 73.2C16.782 73.08 16.826 72.932 16.914 72.756C17.01 72.58 17.154 72.408 17.346 72.24C17.538 72.072 17.782 71.932 18.078 71.82C18.382 71.7 18.75 71.64 19.182 71.64C19.662 71.64 20.066 71.704 20.394 71.832C20.722 71.952 20.978 72.116 21.162 72.324C21.354 72.532 21.49 72.768 21.57 73.032C21.658 73.296 21.702 73.564 21.702 73.836V77.724C21.702 77.804 21.674 77.872 21.618 77.928C21.57 77.976 21.506 78 21.426 78H20.874C20.786 78 20.718 77.976 20.67 77.928C20.622 77.872 20.598 77.804 20.598 77.724V77.208C20.494 77.352 20.354 77.496 20.178 77.64C20.002 77.776 19.782 77.892 19.518 77.988C19.254 78.076 18.93 78.12 18.546 78.12ZM18.798 77.22C19.126 77.22 19.426 77.152 19.698 77.016C19.97 76.872 20.182 76.652 20.334 76.356C20.494 76.06 20.574 75.688 20.574 75.24V74.904L19.182 75.108C18.614 75.188 18.186 75.324 17.898 75.516C17.61 75.7 17.466 75.936 17.466 76.224C17.466 76.448 17.53 76.636 17.658 76.788C17.794 76.932 17.962 77.04 18.162 77.112C18.37 77.184 18.582 77.22 18.798 77.22ZM23.7151 78C23.6351 78 23.5671 77.976 23.5111 77.928C23.4631 77.872 23.4391 77.804 23.4391 77.724V69.756C23.4391 69.676 23.4631 69.612 23.5111 69.564C23.5671 69.508 23.6351 69.48 23.7151 69.48H24.2791C24.3591 69.48 24.4231 69.508 24.4711 69.564C24.5271 69.612 24.5551 69.676 24.5551 69.756V73.932L26.9191 71.964C27.0151 71.884 27.0871 71.832 27.1351 71.808C27.1911 71.776 27.2791 71.76 27.3991 71.76H28.0351C28.1071 71.76 28.1671 71.784 28.2151 71.832C28.2631 71.88 28.2871 71.94 28.2871 72.012C28.2871 72.044 28.2751 72.08 28.2511 72.12C28.2351 72.16 28.1991 72.2 28.1431 72.24L25.3711 74.544L28.4431 77.532C28.5391 77.612 28.5871 77.684 28.5871 77.748C28.5871 77.82 28.5631 77.88 28.5151 77.928C28.4671 77.976 28.4071 78 28.3351 78H27.7111C27.5911 78 27.5031 77.988 27.4471 77.964C27.3911 77.932 27.3191 77.876 27.2311 77.796L24.5551 75.24V77.724C24.5551 77.804 24.5271 77.872 24.4711 77.928C24.4231 77.976 24.3591 78 24.2791 78H23.7151ZM29.8906 78C29.8106 78 29.7426 77.976 29.6866 77.928C29.6386 77.872 29.6146 77.804 29.6146 77.724V72.036C29.6146 71.956 29.6386 71.892 29.6866 71.844C29.7426 71.788 29.8106 71.76 29.8906 71.76H30.4666C30.5466 71.76 30.6106 71.788 30.6586 71.844C30.7066 71.892 30.7306 71.956 30.7306 72.036V77.724C30.7306 77.804 30.7066 77.872 30.6586 77.928C30.6106 77.976 30.5466 78 30.4666 78H29.8906ZM29.7946 70.596C29.7146 70.596 29.6466 70.572 29.5906 70.524C29.5426 70.468 29.5186 70.4 29.5186 70.32V69.672C29.5186 69.592 29.5426 69.528 29.5906 69.48C29.6466 69.424 29.7146 69.396 29.7946 69.396H30.5506C30.6306 69.396 30.6946 69.424 30.7426 69.48C30.7986 69.528 30.8266 69.592 30.8266 69.672V70.32C30.8266 70.4 30.7986 70.468 30.7426 70.524C30.6946 70.572 30.6306 70.596 30.5506 70.596H29.7946ZM32.7368 74.904C32.6568 74.904 32.5888 74.88 32.5328 74.832C32.4848 74.776 32.4608 74.708 32.4608 74.628V74.172C32.4608 74.092 32.4848 74.028 32.5328 73.98C32.5888 73.924 32.6568 73.896 32.7368 73.896H36.3368C36.4168 73.896 36.4808 73.924 36.5288 73.98C36.5848 74.028 36.6128 74.092 36.6128 74.172V74.628C36.6128 74.708 36.5848 74.776 36.5288 74.832C36.4808 74.88 36.4168 74.904 36.3368 74.904H32.7368ZM38.6213 78C38.5413 78 38.4733 77.976 38.4173 77.928C38.3693 77.872 38.3453 77.804 38.3453 77.724V69.756C38.3453 69.676 38.3693 69.612 38.4173 69.564C38.4733 69.508 38.5413 69.48 38.6213 69.48H39.1853C39.2733 69.48 39.3413 69.508 39.3893 69.564C39.4373 69.612 39.4613 69.676 39.4613 69.756V77.724C39.4613 77.804 39.4373 77.872 39.3893 77.928C39.3413 77.976 39.2733 78 39.1853 78H38.6213ZM42.9913 78.12C42.5913 78.12 42.2273 78.04 41.8993 77.88C41.5713 77.72 41.3073 77.504 41.1073 77.232C40.9073 76.96 40.8073 76.652 40.8073 76.308C40.8073 75.756 41.0313 75.316 41.4793 74.988C41.9273 74.66 42.5113 74.444 43.2313 74.34L45.0193 74.088V73.74C45.0193 73.356 44.9073 73.056 44.6833 72.84C44.4673 72.624 44.1113 72.516 43.6153 72.516C43.2553 72.516 42.9633 72.588 42.7393 72.732C42.5233 72.876 42.3713 73.06 42.2833 73.284C42.2353 73.404 42.1513 73.464 42.0313 73.464H41.4913C41.4033 73.464 41.3353 73.44 41.2873 73.392C41.2473 73.336 41.2273 73.272 41.2273 73.2C41.2273 73.08 41.2713 72.932 41.3593 72.756C41.4553 72.58 41.5993 72.408 41.7913 72.24C41.9833 72.072 42.2273 71.932 42.5233 71.82C42.8273 71.7 43.1953 71.64 43.6273 71.64C44.1073 71.64 44.5113 71.704 44.8393 71.832C45.1673 71.952 45.4233 72.116 45.6073 72.324C45.7993 72.532 45.9353 72.768 46.0153 73.032C46.1033 73.296 46.1473 73.564 46.1473 73.836V77.724C46.1473 77.804 46.1193 77.872 46.0633 77.928C46.0153 77.976 45.9513 78 45.8713 78H45.3193C45.2313 78 45.1633 77.976 45.1153 77.928C45.0673 77.872 45.0433 77.804 45.0433 77.724V77.208C44.9393 77.352 44.7993 77.496 44.6233 77.64C44.4473 77.776 44.2273 77.892 43.9633 77.988C43.6993 78.076 43.3753 78.12 42.9913 78.12ZM43.2433 77.22C43.5713 77.22 43.8713 77.152 44.1433 77.016C44.4153 76.872 44.6273 76.652 44.7793 76.356C44.9393 76.06 45.0193 75.688 45.0193 75.24V74.904L43.6273 75.108C43.0593 75.188 42.6313 75.324 42.3433 75.516C42.0553 75.7 41.9113 75.936 41.9113 76.224C41.9113 76.448 41.9753 76.636 42.1033 76.788C42.2393 76.932 42.4073 77.04 42.6073 77.112C42.8153 77.184 43.0273 77.22 43.2433 77.22ZM48.1604 78C48.0804 78 48.0124 77.976 47.9564 77.928C47.9084 77.872 47.8844 77.804 47.8844 77.724V69.756C47.8844 69.676 47.9084 69.612 47.9564 69.564C48.0124 69.508 48.0804 69.48 48.1604 69.48H48.7244C48.8044 69.48 48.8684 69.508 48.9164 69.564C48.9724 69.612 49.0004 69.676 49.0004 69.756V73.932L51.3644 71.964C51.4604 71.884 51.5324 71.832 51.5804 71.808C51.6364 71.776 51.7244 71.76 51.8444 71.76H52.4804C52.5524 71.76 52.6124 71.784 52.6604 71.832C52.7084 71.88 52.7324 71.94 52.7324 72.012C52.7324 72.044 52.7204 72.08 52.6964 72.12C52.6804 72.16 52.6444 72.2 52.5884 72.24L49.8164 74.544L52.8884 77.532C52.9844 77.612 53.0324 77.684 53.0324 77.748C53.0324 77.82 53.0084 77.88 52.9604 77.928C52.9124 77.976 52.8524 78 52.7804 78H52.1564C52.0364 78 51.9484 77.988 51.8924 77.964C51.8364 77.932 51.7644 77.876 51.6764 77.796L49.0004 75.24V77.724C49.0004 77.804 48.9724 77.872 48.9164 77.928C48.8684 77.976 48.8044 78 48.7244 78H48.1604ZM54.3359 78C54.2559 78 54.1879 77.976 54.1319 77.928C54.0839 77.872 54.0599 77.804 54.0599 77.724V72.036C54.0599 71.956 54.0839 71.892 54.1319 71.844C54.1879 71.788 54.2559 71.76 54.3359 71.76H54.9119C54.9919 71.76 55.0559 71.788 55.1039 71.844C55.1519 71.892 55.1759 71.956 55.1759 72.036V77.724C55.1759 77.804 55.1519 77.872 55.1039 77.928C55.0559 77.976 54.9919 78 54.9119 78H54.3359ZM54.2399 70.596C54.1599 70.596 54.0919 70.572 54.0359 70.524C53.9879 70.468 53.9639 70.4 53.9639 70.32V69.672C53.9639 69.592 53.9879 69.528 54.0359 69.48C54.0919 69.424 54.1599 69.396 54.2399 69.396H54.9959C55.0759 69.396 55.1399 69.424 55.1879 69.48C55.2439 69.528 55.2719 69.592 55.2719 69.672V70.32C55.2719 70.4 55.2439 70.468 55.1879 70.524C55.1399 70.572 55.0759 70.596 54.9959 70.596H54.2399Z" fill="#FAFAFA"/>
</svg>
