<svg width="156" height="134" viewBox="0 0 156 134" fill="none" xmlns="http://www.w3.org/2000/svg">
<rect y="134" width="7.05262" height="5.37931" transform="rotate(-90 0 134)" fill="#00357A"/>
<rect y="119.895" width="7.05262" height="5.37931" transform="rotate(-90 0 119.895)" fill="#00357A"/>
<rect y="105.79" width="7.05262" height="5.37931" transform="rotate(-90 0 105.79)" fill="#00357A"/>
<rect y="91.6841" width="7.05262" height="5.37931" transform="rotate(-90 0 91.6841)" fill="#00357A"/>
<rect y="77.5791" width="7.05262" height="5.37931" transform="rotate(-90 0 77.5791)" fill="#00357A"/>
<rect y="63.4736" width="7.05262" height="5.37931" transform="rotate(-90 0 63.4736)" fill="#00357A"/>
<rect y="49.3682" width="7.05262" height="5.37931" transform="rotate(-90 0 49.3682)" fill="#00357A"/>
<rect y="35.2632" width="7.05262" height="5.37931" transform="rotate(-90 0 35.2632)" fill="#00357A"/>
<rect y="21.1582" width="7.05262" height="5.37931" transform="rotate(-90 0 21.1582)" fill="#00357A"/>
<rect y="7.05273" width="7.05262" height="5.37931" transform="rotate(-90 0 7.05273)" fill="#00357A"/>
<rect x="10.7588" y="134" width="7.05262" height="5.37931" transform="rotate(-90 10.7588 134)" fill="#00357A"/>
<rect x="10.7588" y="119.895" width="7.05262" height="5.37931" transform="rotate(-90 10.7588 119.895)" fill="#00357A"/>
<rect x="10.7588" y="105.79" width="7.05262" height="5.37931" transform="rotate(-90 10.7588 105.79)" fill="#00357A"/>
<rect x="10.7588" y="91.6841" width="7.05262" height="5.37931" transform="rotate(-90 10.7588 91.6841)" fill="#00357A"/>
<rect x="10.7588" y="77.5791" width="7.05262" height="5.37931" transform="rotate(-90 10.7588 77.5791)" fill="#00357A"/>
<rect x="10.7588" y="63.4736" width="7.05262" height="5.37931" transform="rotate(-90 10.7588 63.4736)" fill="#00357A"/>
<rect x="10.7588" y="49.3682" width="7.05262" height="5.37931" transform="rotate(-90 10.7588 49.3682)" fill="#00357A"/>
<rect x="10.7588" y="35.2632" width="7.05262" height="5.37931" transform="rotate(-90 10.7588 35.2632)" fill="#00357A"/>
<rect x="10.7588" y="21.1582" width="7.05262" height="5.37931" transform="rotate(-90 10.7588 21.1582)" fill="#00357A"/>
<rect x="10.7588" y="7.05273" width="7.05262" height="5.37931" transform="rotate(-90 10.7588 7.05273)" fill="#00357A"/>
<rect x="21.5176" y="134" width="7.05262" height="5.37931" transform="rotate(-90 21.5176 134)" fill="#00357A"/>
<rect x="21.5176" y="119.895" width="7.05262" height="5.37931" transform="rotate(-90 21.5176 119.895)" fill="#00357A"/>
<rect x="21.5176" y="105.79" width="7.05262" height="5.37931" transform="rotate(-90 21.5176 105.79)" fill="#00357A"/>
<rect x="21.5176" y="91.6841" width="7.05262" height="5.37931" transform="rotate(-90 21.5176 91.6841)" fill="#00357A"/>
<rect x="21.5176" y="77.5791" width="7.05262" height="5.37931" transform="rotate(-90 21.5176 77.5791)" fill="#00357A"/>
<rect x="21.5176" y="63.4736" width="7.05262" height="5.37931" transform="rotate(-90 21.5176 63.4736)" fill="#00357A"/>
<rect x="21.5176" y="49.3682" width="7.05262" height="5.37931" transform="rotate(-90 21.5176 49.3682)" fill="#00357A"/>
<rect x="21.5176" y="35.2632" width="7.05262" height="5.37931" transform="rotate(-90 21.5176 35.2632)" fill="#00357A"/>
<rect x="21.5176" y="21.1582" width="7.05262" height="5.37931" transform="rotate(-90 21.5176 21.1582)" fill="#00357A"/>
<rect x="21.5176" y="7.05273" width="7.05262" height="5.37931" transform="rotate(-90 21.5176 7.05273)" fill="#00357A"/>
<rect x="32.2759" y="134" width="7.05262" height="5.37931" transform="rotate(-90 32.2759 134)" fill="#00357A"/>
<rect x="32.2759" y="119.895" width="7.05262" height="5.37931" transform="rotate(-90 32.2759 119.895)" fill="#00357A"/>
<rect x="32.2759" y="105.79" width="7.05262" height="5.37931" transform="rotate(-90 32.2759 105.79)" fill="#00357A"/>
<rect x="32.2759" y="91.6841" width="7.05262" height="5.37931" transform="rotate(-90 32.2759 91.6841)" fill="#00357A"/>
<rect x="32.2759" y="77.5791" width="7.05262" height="5.37931" transform="rotate(-90 32.2759 77.5791)" fill="#00357A"/>
<rect x="32.2759" y="63.4736" width="7.05262" height="5.37931" transform="rotate(-90 32.2759 63.4736)" fill="#00357A"/>
<rect x="32.2759" y="49.3682" width="7.05262" height="5.37931" transform="rotate(-90 32.2759 49.3682)" fill="#00357A"/>
<rect x="32.2759" y="35.2632" width="7.05262" height="5.37931" transform="rotate(-90 32.2759 35.2632)" fill="#00357A"/>
<rect x="32.2759" y="21.1582" width="7.05262" height="5.37931" transform="rotate(-90 32.2759 21.1582)" fill="#00357A"/>
<rect x="32.2759" y="7.05273" width="7.05262" height="5.37931" transform="rotate(-90 32.2759 7.05273)" fill="#00357A"/>
<rect x="43.0347" y="134" width="7.05262" height="5.37931" transform="rotate(-90 43.0347 134)" fill="#00357A"/>
<rect x="43.0347" y="119.895" width="7.05262" height="5.37931" transform="rotate(-90 43.0347 119.895)" fill="#00357A"/>
<rect x="43.0347" y="105.79" width="7.05262" height="5.37931" transform="rotate(-90 43.0347 105.79)" fill="#00357A"/>
<rect x="43.0347" y="91.6841" width="7.05262" height="5.37931" transform="rotate(-90 43.0347 91.6841)" fill="#00357A"/>
<rect x="43.0347" y="77.5791" width="7.05262" height="5.37931" transform="rotate(-90 43.0347 77.5791)" fill="#00357A"/>
<rect x="43.0347" y="63.4736" width="7.05262" height="5.37931" transform="rotate(-90 43.0347 63.4736)" fill="#00357A"/>
<rect x="43.0347" y="49.3682" width="7.05262" height="5.37931" transform="rotate(-90 43.0347 49.3682)" fill="#00357A"/>
<rect x="43.0347" y="35.2632" width="7.05262" height="5.37931" transform="rotate(-90 43.0347 35.2632)" fill="#00357A"/>
<rect x="43.0347" y="21.1582" width="7.05262" height="5.37931" transform="rotate(-90 43.0347 21.1582)" fill="#00357A"/>
<rect x="43.0347" y="7.05273" width="7.05262" height="5.37931" transform="rotate(-90 43.0347 7.05273)" fill="#00357A"/>
<rect x="53.793" y="134" width="7.05262" height="5.37931" transform="rotate(-90 53.793 134)" fill="#00357A"/>
<rect x="53.793" y="119.895" width="7.05262" height="5.37931" transform="rotate(-90 53.793 119.895)" fill="#00357A"/>
<rect x="53.793" y="105.79" width="7.05262" height="5.37931" transform="rotate(-90 53.793 105.79)" fill="#00357A"/>
<rect x="53.793" y="91.6841" width="7.05262" height="5.37931" transform="rotate(-90 53.793 91.6841)" fill="#00357A"/>
<rect x="53.793" y="77.5791" width="7.05262" height="5.37931" transform="rotate(-90 53.793 77.5791)" fill="#00357A"/>
<rect x="53.793" y="63.4736" width="7.05262" height="5.37931" transform="rotate(-90 53.793 63.4736)" fill="#00357A"/>
<rect x="53.793" y="49.3682" width="7.05262" height="5.37931" transform="rotate(-90 53.793 49.3682)" fill="#00357A"/>
<rect x="53.793" y="35.2632" width="7.05262" height="5.37931" transform="rotate(-90 53.793 35.2632)" fill="#00357A"/>
<rect x="53.793" y="21.1582" width="7.05262" height="5.37931" transform="rotate(-90 53.793 21.1582)" fill="#00357A"/>
<rect x="53.793" y="7.05273" width="7.05262" height="5.37931" transform="rotate(-90 53.793 7.05273)" fill="#00357A"/>
<rect x="64.5522" y="134" width="7.05262" height="5.37931" transform="rotate(-90 64.5522 134)" fill="#00357A"/>
<rect x="64.5522" y="119.895" width="7.05262" height="5.37931" transform="rotate(-90 64.5522 119.895)" fill="#00357A"/>
<rect x="64.5522" y="105.79" width="7.05262" height="5.37931" transform="rotate(-90 64.5522 105.79)" fill="#00357A"/>
<rect x="64.5522" y="91.6841" width="7.05262" height="5.37931" transform="rotate(-90 64.5522 91.6841)" fill="#00357A"/>
<rect x="64.5522" y="77.5791" width="7.05262" height="5.37931" transform="rotate(-90 64.5522 77.5791)" fill="#00357A"/>
<rect x="64.5522" y="63.4736" width="7.05262" height="5.37931" transform="rotate(-90 64.5522 63.4736)" fill="#00357A"/>
<rect x="64.5522" y="49.3682" width="7.05262" height="5.37931" transform="rotate(-90 64.5522 49.3682)" fill="#00357A"/>
<rect x="64.5522" y="35.2632" width="7.05262" height="5.37931" transform="rotate(-90 64.5522 35.2632)" fill="#00357A"/>
<rect x="64.5522" y="21.1582" width="7.05262" height="5.37931" transform="rotate(-90 64.5522 21.1582)" fill="#00357A"/>
<rect x="64.5522" y="7.05273" width="7.05262" height="5.37931" transform="rotate(-90 64.5522 7.05273)" fill="#00357A"/>
<rect x="75.3105" y="134" width="7.05262" height="5.37931" transform="rotate(-90 75.3105 134)" fill="#00357A"/>
<rect x="75.3105" y="119.895" width="7.05262" height="5.37931" transform="rotate(-90 75.3105 119.895)" fill="#00357A"/>
<rect x="75.3105" y="105.79" width="7.05262" height="5.37931" transform="rotate(-90 75.3105 105.79)" fill="#00357A"/>
<rect x="75.3105" y="91.6841" width="7.05262" height="5.37931" transform="rotate(-90 75.3105 91.6841)" fill="#00357A"/>
<rect x="75.3105" y="77.5791" width="7.05262" height="5.37931" transform="rotate(-90 75.3105 77.5791)" fill="#00357A"/>
<rect x="75.3105" y="63.4736" width="7.05262" height="5.37931" transform="rotate(-90 75.3105 63.4736)" fill="#00357A"/>
<rect x="75.3105" y="49.3682" width="7.05262" height="5.37931" transform="rotate(-90 75.3105 49.3682)" fill="#00357A"/>
<rect x="75.3105" y="35.2632" width="7.05262" height="5.37931" transform="rotate(-90 75.3105 35.2632)" fill="#00357A"/>
<rect x="75.3105" y="21.1582" width="7.05262" height="5.37931" transform="rotate(-90 75.3105 21.1582)" fill="#00357A"/>
<rect x="75.3105" y="7.05273" width="7.05262" height="5.37931" transform="rotate(-90 75.3105 7.05273)" fill="#00357A"/>
<rect x="86.0693" y="134" width="7.05262" height="5.37931" transform="rotate(-90 86.0693 134)" fill="#00357A"/>
<rect x="86.0693" y="119.895" width="7.05262" height="5.37931" transform="rotate(-90 86.0693 119.895)" fill="#00357A"/>
<rect x="86.0693" y="105.79" width="7.05262" height="5.37931" transform="rotate(-90 86.0693 105.79)" fill="#00357A"/>
<rect x="86.0693" y="91.6841" width="7.05262" height="5.37931" transform="rotate(-90 86.0693 91.6841)" fill="#00357A"/>
<rect x="86.0693" y="77.5791" width="7.05262" height="5.37931" transform="rotate(-90 86.0693 77.5791)" fill="#00357A"/>
<rect x="86.0693" y="63.4736" width="7.05262" height="5.37931" transform="rotate(-90 86.0693 63.4736)" fill="#00357A"/>
<rect x="86.0693" y="49.3682" width="7.05262" height="5.37931" transform="rotate(-90 86.0693 49.3682)" fill="#00357A"/>
<rect x="86.0693" y="35.2632" width="7.05262" height="5.37931" transform="rotate(-90 86.0693 35.2632)" fill="#00357A"/>
<rect x="86.0693" y="21.1582" width="7.05262" height="5.37931" transform="rotate(-90 86.0693 21.1582)" fill="#00357A"/>
<rect x="86.0693" y="7.05273" width="7.05262" height="5.37931" transform="rotate(-90 86.0693 7.05273)" fill="#00357A"/>
<rect x="96.8271" y="134" width="7.05262" height="5.37931" transform="rotate(-90 96.8271 134)" fill="#00357A"/>
<rect x="96.8271" y="119.895" width="7.05262" height="5.37931" transform="rotate(-90 96.8271 119.895)" fill="#00357A"/>
<rect x="96.8271" y="105.79" width="7.05262" height="5.37931" transform="rotate(-90 96.8271 105.79)" fill="#00357A"/>
<rect x="96.8271" y="91.6841" width="7.05262" height="5.37931" transform="rotate(-90 96.8271 91.6841)" fill="#00357A"/>
<rect x="96.8271" y="77.5791" width="7.05262" height="5.37931" transform="rotate(-90 96.8271 77.5791)" fill="#00357A"/>
<rect x="96.8271" y="63.4736" width="7.05262" height="5.37931" transform="rotate(-90 96.8271 63.4736)" fill="#00357A"/>
<rect x="96.8271" y="49.3682" width="7.05262" height="5.37931" transform="rotate(-90 96.8271 49.3682)" fill="#00357A"/>
<rect x="96.8271" y="35.2632" width="7.05262" height="5.37931" transform="rotate(-90 96.8271 35.2632)" fill="#00357A"/>
<rect x="96.8271" y="21.1582" width="7.05262" height="5.37931" transform="rotate(-90 96.8271 21.1582)" fill="#00357A"/>
<rect x="96.8271" y="7.05273" width="7.05262" height="5.37931" transform="rotate(-90 96.8271 7.05273)" fill="#00357A"/>
<rect x="107.587" y="134" width="7.05262" height="5.37931" transform="rotate(-90 107.587 134)" fill="#00357A"/>
<rect x="107.587" y="119.895" width="7.05262" height="5.37931" transform="rotate(-90 107.587 119.895)" fill="#00357A"/>
<rect x="107.587" y="105.79" width="7.05262" height="5.37931" transform="rotate(-90 107.587 105.79)" fill="#00357A"/>
<rect x="107.587" y="91.6841" width="7.05262" height="5.37931" transform="rotate(-90 107.587 91.6841)" fill="#00357A"/>
<rect x="107.587" y="77.5791" width="7.05262" height="5.37931" transform="rotate(-90 107.587 77.5791)" fill="#00357A"/>
<rect x="107.587" y="63.4736" width="7.05262" height="5.37931" transform="rotate(-90 107.587 63.4736)" fill="#00357A"/>
<rect x="107.587" y="49.3682" width="7.05262" height="5.37931" transform="rotate(-90 107.587 49.3682)" fill="#00357A"/>
<rect x="107.587" y="35.2632" width="7.05262" height="5.37931" transform="rotate(-90 107.587 35.2632)" fill="#00357A"/>
<rect x="107.587" y="21.1582" width="7.05262" height="5.37931" transform="rotate(-90 107.587 21.1582)" fill="#00357A"/>
<rect x="107.587" y="7.05273" width="7.05262" height="5.37931" transform="rotate(-90 107.587 7.05273)" fill="#00357A"/>
<rect x="118.344" y="134" width="7.05262" height="5.37931" transform="rotate(-90 118.344 134)" fill="#00357A"/>
<rect x="118.344" y="119.895" width="7.05262" height="5.37931" transform="rotate(-90 118.344 119.895)" fill="#00357A"/>
<rect x="118.344" y="105.79" width="7.05262" height="5.37931" transform="rotate(-90 118.344 105.79)" fill="#00357A"/>
<rect x="118.344" y="91.6841" width="7.05262" height="5.37931" transform="rotate(-90 118.344 91.6841)" fill="#00357A"/>
<rect x="118.344" y="77.5791" width="7.05262" height="5.37931" transform="rotate(-90 118.344 77.5791)" fill="#00357A"/>
<rect x="118.344" y="63.4736" width="7.05262" height="5.37931" transform="rotate(-90 118.344 63.4736)" fill="#00357A"/>
<rect x="118.344" y="49.3682" width="7.05262" height="5.37931" transform="rotate(-90 118.344 49.3682)" fill="#00357A"/>
<rect x="118.344" y="35.2632" width="7.05262" height="5.37931" transform="rotate(-90 118.344 35.2632)" fill="#00357A"/>
<rect x="118.344" y="21.1582" width="7.05262" height="5.37931" transform="rotate(-90 118.344 21.1582)" fill="#00357A"/>
<rect x="118.344" y="7.05273" width="7.05262" height="5.37931" transform="rotate(-90 118.344 7.05273)" fill="#00357A"/>
<rect x="129.104" y="134" width="7.05262" height="5.37931" transform="rotate(-90 129.104 134)" fill="#00357A"/>
<rect x="129.104" y="119.895" width="7.05262" height="5.37931" transform="rotate(-90 129.104 119.895)" fill="#00357A"/>
<rect x="129.104" y="105.79" width="7.05262" height="5.37931" transform="rotate(-90 129.104 105.79)" fill="#00357A"/>
<rect x="129.104" y="91.6841" width="7.05262" height="5.37931" transform="rotate(-90 129.104 91.6841)" fill="#00357A"/>
<rect x="129.104" y="77.5791" width="7.05262" height="5.37931" transform="rotate(-90 129.104 77.5791)" fill="#00357A"/>
<rect x="129.104" y="63.4736" width="7.05262" height="5.37931" transform="rotate(-90 129.104 63.4736)" fill="#00357A"/>
<rect x="129.104" y="49.3682" width="7.05262" height="5.37931" transform="rotate(-90 129.104 49.3682)" fill="#00357A"/>
<rect x="129.104" y="35.2632" width="7.05262" height="5.37931" transform="rotate(-90 129.104 35.2632)" fill="#00357A"/>
<rect x="129.104" y="21.1582" width="7.05262" height="5.37931" transform="rotate(-90 129.104 21.1582)" fill="#00357A"/>
<rect x="129.104" y="7.05273" width="7.05262" height="5.37931" transform="rotate(-90 129.104 7.05273)" fill="#00357A"/>
<rect x="139.862" y="134" width="7.05262" height="5.37931" transform="rotate(-90 139.862 134)" fill="#00357A"/>
<rect x="139.862" y="119.895" width="7.05262" height="5.37931" transform="rotate(-90 139.862 119.895)" fill="#00357A"/>
<rect x="139.862" y="105.79" width="7.05262" height="5.37931" transform="rotate(-90 139.862 105.79)" fill="#00357A"/>
<rect x="139.862" y="91.6841" width="7.05262" height="5.37931" transform="rotate(-90 139.862 91.6841)" fill="#00357A"/>
<rect x="139.862" y="77.5791" width="7.05262" height="5.37931" transform="rotate(-90 139.862 77.5791)" fill="#00357A"/>
<rect x="139.862" y="63.4736" width="7.05262" height="5.37931" transform="rotate(-90 139.862 63.4736)" fill="#00357A"/>
<rect x="139.862" y="49.3682" width="7.05262" height="5.37931" transform="rotate(-90 139.862 49.3682)" fill="#00357A"/>
<rect x="139.862" y="35.2632" width="7.05262" height="5.37931" transform="rotate(-90 139.862 35.2632)" fill="#00357A"/>
<rect x="139.862" y="21.1582" width="7.05262" height="5.37931" transform="rotate(-90 139.862 21.1582)" fill="#00357A"/>
<rect x="139.862" y="7.05273" width="7.05262" height="5.37931" transform="rotate(-90 139.862 7.05273)" fill="#00357A"/>
<rect x="150.621" y="134" width="7.05262" height="5.37931" transform="rotate(-90 150.621 134)" fill="#00357A"/>
<rect x="150.621" y="119.895" width="7.05262" height="5.37931" transform="rotate(-90 150.621 119.895)" fill="#00357A"/>
<rect x="150.621" y="105.79" width="7.05262" height="5.37931" transform="rotate(-90 150.621 105.79)" fill="#00357A"/>
<rect x="150.621" y="91.6841" width="7.05262" height="5.37931" transform="rotate(-90 150.621 91.6841)" fill="#00357A"/>
<rect x="150.621" y="77.5791" width="7.05262" height="5.37931" transform="rotate(-90 150.621 77.5791)" fill="#00357A"/>
<rect x="150.621" y="63.4736" width="7.05262" height="5.37931" transform="rotate(-90 150.621 63.4736)" fill="#00357A"/>
<rect x="150.621" y="49.3682" width="7.05262" height="5.37931" transform="rotate(-90 150.621 49.3682)" fill="#00357A"/>
<rect x="150.621" y="35.2632" width="7.05262" height="5.37931" transform="rotate(-90 150.621 35.2632)" fill="#00357A"/>
<rect x="150.621" y="21.1582" width="7.05262" height="5.37931" transform="rotate(-90 150.621 21.1582)" fill="#00357A"/>
<rect x="150.621" y="7.05273" width="7.05262" height="5.37931" transform="rotate(-90 150.621 7.05273)" fill="#00357A"/>
</svg>
