<svg width="102" height="122" viewBox="0 0 102 122" fill="none" xmlns="http://www.w3.org/2000/svg">
<rect y="122" width="6.42105" height="4.85164" transform="rotate(-90 0 122)" fill="#002A61"/>
<rect y="109.158" width="6.42105" height="4.85164" transform="rotate(-90 0 109.158)" fill="#002A61"/>
<rect y="96.3158" width="6.42105" height="4.85164" transform="rotate(-90 0 96.3158)" fill="#002A61"/>
<rect y="83.4738" width="6.42105" height="4.85164" transform="rotate(-90 0 83.4738)" fill="#002A61"/>
<rect y="70.6317" width="6.42105" height="4.85164" transform="rotate(-90 0 70.6317)" fill="#002A61"/>
<rect y="57.7896" width="6.42105" height="4.85164" transform="rotate(-90 0 57.7896)" fill="#002A61"/>
<rect y="44.9474" width="6.42105" height="4.85164" transform="rotate(-90 0 44.9474)" fill="#002A61"/>
<rect y="32.1055" width="6.42105" height="4.85164" transform="rotate(-90 0 32.1055)" fill="#002A61"/>
<rect y="19.2633" width="6.42105" height="4.85164" transform="rotate(-90 0 19.2633)" fill="#002A61"/>
<rect y="6.42108" width="6.42105" height="4.85164" transform="rotate(-90 0 6.42108)" fill="#002A61"/>
<rect x="9.70264" y="122" width="6.42105" height="4.85164" transform="rotate(-90 9.70264 122)" fill="#002A61"/>
<rect x="9.70264" y="109.158" width="6.42105" height="4.85164" transform="rotate(-90 9.70264 109.158)" fill="#002A61"/>
<rect x="9.70264" y="96.3158" width="6.42105" height="4.85164" transform="rotate(-90 9.70264 96.3158)" fill="#002A61"/>
<rect x="9.70264" y="83.4738" width="6.42105" height="4.85164" transform="rotate(-90 9.70264 83.4738)" fill="#002A61"/>
<rect x="9.70264" y="70.6317" width="6.42105" height="4.85164" transform="rotate(-90 9.70264 70.6317)" fill="#002A61"/>
<rect x="9.70264" y="57.7896" width="6.42105" height="4.85164" transform="rotate(-90 9.70264 57.7896)" fill="#002A61"/>
<rect x="9.70264" y="44.9474" width="6.42105" height="4.85164" transform="rotate(-90 9.70264 44.9474)" fill="#002A61"/>
<rect x="9.70264" y="32.1055" width="6.42105" height="4.85164" transform="rotate(-90 9.70264 32.1055)" fill="#002A61"/>
<rect x="9.70264" y="19.2633" width="6.42105" height="4.85164" transform="rotate(-90 9.70264 19.2633)" fill="#002A61"/>
<rect x="9.70264" y="6.42108" width="6.42105" height="4.85164" transform="rotate(-90 9.70264 6.42108)" fill="#002A61"/>
<rect x="19.4067" y="122" width="6.42105" height="4.85164" transform="rotate(-90 19.4067 122)" fill="#002A61"/>
<rect x="19.4067" y="109.158" width="6.42105" height="4.85164" transform="rotate(-90 19.4067 109.158)" fill="#002A61"/>
<rect x="19.4067" y="96.3158" width="6.42105" height="4.85164" transform="rotate(-90 19.4067 96.3158)" fill="#002A61"/>
<rect x="19.4067" y="83.4738" width="6.42105" height="4.85164" transform="rotate(-90 19.4067 83.4738)" fill="#002A61"/>
<rect x="19.4067" y="70.6317" width="6.42105" height="4.85164" transform="rotate(-90 19.4067 70.6317)" fill="#002A61"/>
<rect x="19.4067" y="57.7896" width="6.42105" height="4.85164" transform="rotate(-90 19.4067 57.7896)" fill="#002A61"/>
<rect x="19.4067" y="44.9474" width="6.42105" height="4.85164" transform="rotate(-90 19.4067 44.9474)" fill="#002A61"/>
<rect x="19.4067" y="32.1055" width="6.42105" height="4.85164" transform="rotate(-90 19.4067 32.1055)" fill="#002A61"/>
<rect x="19.4067" y="19.2633" width="6.42105" height="4.85164" transform="rotate(-90 19.4067 19.2633)" fill="#002A61"/>
<rect x="19.4067" y="6.42108" width="6.42105" height="4.85164" transform="rotate(-90 19.4067 6.42108)" fill="#002A61"/>
<rect x="29.1099" y="122" width="6.42105" height="4.85164" transform="rotate(-90 29.1099 122)" fill="#002A61"/>
<rect x="29.1099" y="109.158" width="6.42105" height="4.85164" transform="rotate(-90 29.1099 109.158)" fill="#002A61"/>
<rect x="29.1099" y="96.3158" width="6.42105" height="4.85164" transform="rotate(-90 29.1099 96.3158)" fill="#002A61"/>
<rect x="29.1099" y="83.4738" width="6.42105" height="4.85164" transform="rotate(-90 29.1099 83.4738)" fill="#002A61"/>
<rect x="29.1099" y="70.6317" width="6.42105" height="4.85164" transform="rotate(-90 29.1099 70.6317)" fill="#002A61"/>
<rect x="29.1099" y="57.7896" width="6.42105" height="4.85164" transform="rotate(-90 29.1099 57.7896)" fill="#002A61"/>
<rect x="29.1099" y="44.9474" width="6.42105" height="4.85164" transform="rotate(-90 29.1099 44.9474)" fill="#002A61"/>
<rect x="29.1099" y="32.1055" width="6.42105" height="4.85164" transform="rotate(-90 29.1099 32.1055)" fill="#002A61"/>
<rect x="29.1099" y="19.2633" width="6.42105" height="4.85164" transform="rotate(-90 29.1099 19.2633)" fill="#002A61"/>
<rect x="29.1099" y="6.42108" width="6.42105" height="4.85164" transform="rotate(-90 29.1099 6.42108)" fill="#002A61"/>
<rect x="38.8132" y="122" width="6.42105" height="4.85164" transform="rotate(-90 38.8132 122)" fill="#002A61"/>
<rect x="38.8132" y="109.158" width="6.42105" height="4.85164" transform="rotate(-90 38.8132 109.158)" fill="#002A61"/>
<rect x="38.8132" y="96.3158" width="6.42105" height="4.85164" transform="rotate(-90 38.8132 96.3158)" fill="#002A61"/>
<rect x="38.8132" y="83.4738" width="6.42105" height="4.85164" transform="rotate(-90 38.8132 83.4738)" fill="#002A61"/>
<rect x="38.8132" y="70.6317" width="6.42105" height="4.85164" transform="rotate(-90 38.8132 70.6317)" fill="#002A61"/>
<rect x="38.8132" y="57.7896" width="6.42105" height="4.85164" transform="rotate(-90 38.8132 57.7896)" fill="#002A61"/>
<rect x="38.8132" y="44.9474" width="6.42105" height="4.85164" transform="rotate(-90 38.8132 44.9474)" fill="#002A61"/>
<rect x="38.8132" y="32.1055" width="6.42105" height="4.85164" transform="rotate(-90 38.8132 32.1055)" fill="#002A61"/>
<rect x="38.8132" y="19.2633" width="6.42105" height="4.85164" transform="rotate(-90 38.8132 19.2633)" fill="#002A61"/>
<rect x="38.8132" y="6.42108" width="6.42105" height="4.85164" transform="rotate(-90 38.8132 6.42108)" fill="#002A61"/>
<rect x="48.5164" y="122" width="6.42105" height="4.85164" transform="rotate(-90 48.5164 122)" fill="#002A61"/>
<rect x="48.5164" y="109.158" width="6.42105" height="4.85164" transform="rotate(-90 48.5164 109.158)" fill="#002A61"/>
<rect x="48.5164" y="96.3158" width="6.42105" height="4.85164" transform="rotate(-90 48.5164 96.3158)" fill="#002A61"/>
<rect x="48.5164" y="83.4738" width="6.42105" height="4.85164" transform="rotate(-90 48.5164 83.4738)" fill="#002A61"/>
<rect x="48.5164" y="70.6317" width="6.42105" height="4.85164" transform="rotate(-90 48.5164 70.6317)" fill="#002A61"/>
<rect x="48.5164" y="57.7896" width="6.42105" height="4.85164" transform="rotate(-90 48.5164 57.7896)" fill="#002A61"/>
<rect x="48.5164" y="44.9474" width="6.42105" height="4.85164" transform="rotate(-90 48.5164 44.9474)" fill="#002A61"/>
<rect x="48.5164" y="32.1055" width="6.42105" height="4.85164" transform="rotate(-90 48.5164 32.1055)" fill="#002A61"/>
<rect x="48.5164" y="19.2633" width="6.42105" height="4.85164" transform="rotate(-90 48.5164 19.2633)" fill="#002A61"/>
<rect x="48.5164" y="6.42108" width="6.42105" height="4.85164" transform="rotate(-90 48.5164 6.42108)" fill="#002A61"/>
<rect x="58.2197" y="122" width="6.42105" height="4.85164" transform="rotate(-90 58.2197 122)" fill="#002A61"/>
<rect x="58.2197" y="109.158" width="6.42105" height="4.85164" transform="rotate(-90 58.2197 109.158)" fill="#002A61"/>
<rect x="58.2197" y="96.3158" width="6.42105" height="4.85164" transform="rotate(-90 58.2197 96.3158)" fill="#002A61"/>
<rect x="58.2197" y="83.4738" width="6.42105" height="4.85164" transform="rotate(-90 58.2197 83.4738)" fill="#002A61"/>
<rect x="58.2197" y="70.6317" width="6.42105" height="4.85164" transform="rotate(-90 58.2197 70.6317)" fill="#002A61"/>
<rect x="58.2197" y="57.7896" width="6.42105" height="4.85164" transform="rotate(-90 58.2197 57.7896)" fill="#002A61"/>
<rect x="58.2197" y="44.9474" width="6.42105" height="4.85164" transform="rotate(-90 58.2197 44.9474)" fill="#002A61"/>
<rect x="58.2197" y="32.1055" width="6.42105" height="4.85164" transform="rotate(-90 58.2197 32.1055)" fill="#002A61"/>
<rect x="58.2197" y="19.2633" width="6.42105" height="4.85164" transform="rotate(-90 58.2197 19.2633)" fill="#002A61"/>
<rect x="58.2197" y="6.42108" width="6.42105" height="4.85164" transform="rotate(-90 58.2197 6.42108)" fill="#002A61"/>
<rect x="67.9231" y="122" width="6.42105" height="4.85164" transform="rotate(-90 67.9231 122)" fill="#002A61"/>
<rect x="67.9231" y="109.158" width="6.42105" height="4.85164" transform="rotate(-90 67.9231 109.158)" fill="#002A61"/>
<rect x="67.9231" y="96.3158" width="6.42105" height="4.85164" transform="rotate(-90 67.9231 96.3158)" fill="#002A61"/>
<rect x="67.9231" y="83.4738" width="6.42105" height="4.85164" transform="rotate(-90 67.9231 83.4738)" fill="#002A61"/>
<rect x="67.9231" y="70.6317" width="6.42105" height="4.85164" transform="rotate(-90 67.9231 70.6317)" fill="#002A61"/>
<rect x="67.9231" y="57.7896" width="6.42105" height="4.85164" transform="rotate(-90 67.9231 57.7896)" fill="#002A61"/>
<rect x="67.9231" y="44.9474" width="6.42105" height="4.85164" transform="rotate(-90 67.9231 44.9474)" fill="#002A61"/>
<rect x="67.9231" y="32.1055" width="6.42105" height="4.85164" transform="rotate(-90 67.9231 32.1055)" fill="#002A61"/>
<rect x="67.9231" y="19.2633" width="6.42105" height="4.85164" transform="rotate(-90 67.9231 19.2633)" fill="#002A61"/>
<rect x="67.9231" y="6.42108" width="6.42105" height="4.85164" transform="rotate(-90 67.9231 6.42108)" fill="#002A61"/>
<rect x="77.6262" y="122" width="6.42105" height="4.85164" transform="rotate(-90 77.6262 122)" fill="#002A61"/>
<rect x="77.6262" y="109.158" width="6.42105" height="4.85164" transform="rotate(-90 77.6262 109.158)" fill="#002A61"/>
<rect x="77.6262" y="96.3158" width="6.42105" height="4.85164" transform="rotate(-90 77.6262 96.3158)" fill="#002A61"/>
<rect x="77.6262" y="83.4738" width="6.42105" height="4.85164" transform="rotate(-90 77.6262 83.4738)" fill="#002A61"/>
<rect x="77.6262" y="70.6317" width="6.42105" height="4.85164" transform="rotate(-90 77.6262 70.6317)" fill="#002A61"/>
<rect x="77.6262" y="57.7896" width="6.42105" height="4.85164" transform="rotate(-90 77.6262 57.7896)" fill="#002A61"/>
<rect x="77.6262" y="44.9474" width="6.42105" height="4.85164" transform="rotate(-90 77.6262 44.9474)" fill="#002A61"/>
<rect x="77.6262" y="32.1055" width="6.42105" height="4.85164" transform="rotate(-90 77.6262 32.1055)" fill="#002A61"/>
<rect x="77.6262" y="19.2633" width="6.42105" height="4.85164" transform="rotate(-90 77.6262 19.2633)" fill="#002A61"/>
<rect x="77.6262" y="6.42108" width="6.42105" height="4.85164" transform="rotate(-90 77.6262 6.42108)" fill="#002A61"/>
<rect x="87.3293" y="122" width="6.42105" height="4.85164" transform="rotate(-90 87.3293 122)" fill="#002A61"/>
<rect x="87.3293" y="109.158" width="6.42105" height="4.85164" transform="rotate(-90 87.3293 109.158)" fill="#002A61"/>
<rect x="87.3293" y="96.3158" width="6.42105" height="4.85164" transform="rotate(-90 87.3293 96.3158)" fill="#002A61"/>
<rect x="87.3293" y="83.4738" width="6.42105" height="4.85164" transform="rotate(-90 87.3293 83.4738)" fill="#002A61"/>
<rect x="87.3293" y="70.6317" width="6.42105" height="4.85164" transform="rotate(-90 87.3293 70.6317)" fill="#002A61"/>
<rect x="87.3293" y="57.7896" width="6.42105" height="4.85164" transform="rotate(-90 87.3293 57.7896)" fill="#002A61"/>
<rect x="87.3293" y="44.9474" width="6.42105" height="4.85164" transform="rotate(-90 87.3293 44.9474)" fill="#002A61"/>
<rect x="87.3293" y="32.1055" width="6.42105" height="4.85164" transform="rotate(-90 87.3293 32.1055)" fill="#002A61"/>
<rect x="87.3293" y="19.2633" width="6.42105" height="4.85164" transform="rotate(-90 87.3293 19.2633)" fill="#002A61"/>
<rect x="87.3293" y="6.42108" width="6.42105" height="4.85164" transform="rotate(-90 87.3293 6.42108)" fill="#002A61"/>
<rect x="97.0334" y="122" width="6.42105" height="4.85164" transform="rotate(-90 97.0334 122)" fill="#002A61"/>
<rect x="97.0334" y="109.158" width="6.42105" height="4.85164" transform="rotate(-90 97.0334 109.158)" fill="#002A61"/>
<rect x="97.0334" y="96.3158" width="6.42105" height="4.85164" transform="rotate(-90 97.0334 96.3158)" fill="#002A61"/>
<rect x="97.0334" y="83.4738" width="6.42105" height="4.85164" transform="rotate(-90 97.0334 83.4738)" fill="#002A61"/>
<rect x="97.0334" y="70.6317" width="6.42105" height="4.85164" transform="rotate(-90 97.0334 70.6317)" fill="#002A61"/>
<rect x="97.0334" y="57.7896" width="6.42105" height="4.85164" transform="rotate(-90 97.0334 57.7896)" fill="#002A61"/>
<rect x="97.0334" y="44.9474" width="6.42105" height="4.85164" transform="rotate(-90 97.0334 44.9474)" fill="#002A61"/>
<rect x="97.0334" y="32.1055" width="6.42105" height="4.85164" transform="rotate(-90 97.0334 32.1055)" fill="#002A61"/>
<rect x="97.0334" y="19.2633" width="6.42105" height="4.85164" transform="rotate(-90 97.0334 19.2633)" fill="#002A61"/>
<rect x="97.0334" y="6.42108" width="6.42105" height="4.85164" transform="rotate(-90 97.0334 6.42108)" fill="#002A61"/>
</svg>
